<?xml version="1.0" encoding="utf-8"?>
<!-- Generator: Adobe Illustrator 22.0.1, SVG Export Plug-In . SVG Version: 6.00 Build 0)  -->
<svg version="1.1" id="圖層_1" xmlns="http://www.w3.org/2000/svg" xmlns:xlink="http://www.w3.org/1999/xlink" x="0px" y="0px"
	 viewBox="0 0 10980.92 2728.911" enable-background="new 0 0 10980.92 2728.911" xml:space="preserve">
<g>
	<g>
		<rect x="7412.157" y="2329.053" fill="#FFFFFF" width="2702.161" height="29.681"/>
		<rect x="862.602" y="2326.16" fill="#FFFFFF" width="3090.992" height="29.681"/>
		<g>
			<g>
				<path fill="#FFFFFF" d="M4675.041,2715.604l-50.73-170.448h-240.455l-53.889,170.448h-223.681l277.098-864.914h291.306
					l281.512,864.914H4675.041z M4430.696,2356.332h145.221l-72.619-250.899L4430.696,2356.332z"/>
				<path fill="#FFFFFF" d="M4946.178,2465.319l255.796-44.354c21.475,69.699,76.71,104.55,165.712,104.55
					c69.259,0,103.894-17.743,103.894-53.227c0-18.583-8.004-33.047-24.001-43.405c-16.009-10.346-44.613-19.521-85.826-27.531
					c-157.403-29.068-258.454-67.046-303.153-113.955c-44.7-46.9-67.049-102.047-67.049-165.43
					c0-81.541,32.109-149.358,96.333-203.446c64.218-54.088,156.609-81.136,277.167-81.136
					c182.808,0,303.574,70.761,362.325,212.267l-228.175,66.534c-23.673-57.871-71.675-86.809-144.013-86.809
					c-60.063,0-90.083,17.959-90.083,53.86c0,16.057,6.79,28.513,20.382,37.383c13.585,8.87,39.895,17.306,78.92,25.307
					c107.421,21.889,183.712,41.256,228.877,58.087c45.166,16.84,82.856,45.652,113.083,86.441
					c30.228,40.789,45.338,88.878,45.338,144.252c0,87.5-36.822,158.419-110.471,212.733
					c-73.649,54.315-170.31,81.472-289.988,81.472C5132.484,2728.911,4997.466,2641.052,4946.178,2465.319z"/>
				<path fill="#FFFFFF" d="M6132.438,1850.691v864.914h-275.521v-864.914H6132.438z"/>
				<path fill="#FFFFFF" d="M6783.881,2715.604l-50.729-170.448h-240.455l-53.889,170.448h-223.681l277.098-864.914h291.305
					l281.512,864.914H6783.881z M6539.537,2356.332h145.221l-72.619-250.899L6539.537,2356.332z"/>
			</g>
		</g>
	</g>
	<g>
		<g>
			<g>
				<path fill="#FFFFFF" d="M1397.27,1464.586c0,22.839-5.651,40.533-16.923,53.095c-11.29,12.562-30.544,22.269-57.767,29.117
					v36.54h497.171v-36.54c-28.006-7.601-47.467-17.499-58.354-29.686c-10.904-12.17-16.336-29.686-16.336-52.525V143.48
					c0-22.839,5.432-40.338,16.336-52.525c10.887-12.165,30.348-22.068,58.354-29.686v-36.54h-497.171v36.54
					c28.006,6.848,47.444,16.555,58.354,29.117c10.881,12.562,16.337,30.256,16.337,53.095v502.408H478.78V143.48
					c0-22.839,5.432-40.533,16.336-53.095c10.887-12.562,30.348-22.269,58.354-29.117v-36.54H56.3v36.54
					c28.006,7.619,47.444,17.522,58.354,29.686c10.881,12.188,16.336,29.686,16.336,52.525v1321.106
					c0,22.839-5.455,40.355-16.336,52.525c-10.91,12.188-30.348,22.085-58.354,29.686v36.54h497.171v-36.54
					c-27.241-6.848-46.5-16.555-57.767-29.117c-11.29-12.562-16.923-30.256-16.923-53.095V902.8h918.489V1464.586z"/>
			</g>
		</g>
		<path fill="#FFFFFF" d="M3358.167,1186.263h-715.299l-105.931,213.312c-14.61,29.635-21.906,52.968-21.906,69.995
			c0,32.604,25.687,55.184,77.084,67.774v35.55h-520.568v-35.55c30.734-5.921,54.188-16.285,70.329-31.108
			c16.141-14.812,34.589-43.698,55.345-86.66L2776.017,254.13c18.448-37.023,27.672-66.658,27.672-88.881
			c0-34.054-22.304-58.498-66.871-73.321V56.372h558.04v35.556c-45.361,12.602-68.027,34.439-68.027,65.547
			c0,21.492,7.297,45.931,21.907,73.327l599.552,1168.772c25.365,49.631,47.651,83.518,66.876,101.661
			c19.202,18.155,44.964,30.187,77.251,36.108v35.55H3413.04v-35.55c50.874-8.142,76.331-31.108,76.331-68.885
			c0-15.554-7.693-38.502-23.057-68.885L3358.167,1186.263z M3259.314,978.504l-255.22-540.208l-259.334,540.208H3259.314z"/>
		<path fill="#FFFFFF" d="M4655.687,947.333v517.254c0,22.839,5.536,40.533,16.636,53.095
			c11.077,12.562,30.003,22.269,56.777,29.117v36.54h-488.678v-36.54c27.534-7.601,46.639-17.499,57.359-29.686
			c10.703-12.17,16.06-29.686,16.06-52.525V144.62c0-23.581-5.357-41.477-16.06-53.665c-10.72-12.165-29.825-22.068-57.359-29.686
			v-36.54h979.652c119.304,0,213.945,6.853,283.917,20.554c69.978,13.701,130.95,37.679,182.969,71.934
			c60.403,39.59,105.534,93.254,135.358,160.999c28.288,65.478,42.444,135.502,42.444,210.101
			c0,254.254-141.867,403.065-425.582,446.453l303.988,430.473c53.521,75.364,92.719,123.89,117.583,145.589
			c24.841,21.694,55.241,33.68,91.194,35.964v36.54h-565.734v-36.54c38.934-6.082,58.418-19.783,58.418-41.103
			c0-13.707-17.942-46.817-53.826-99.342l-317.131-459.02H4655.687z M4655.687,690.421h527.68c78.005,0,133.068-2.284,165.189-6.853
			c32.12-4.563,61.548-14.075,88.328-28.541c58.107-31.206,87.184-87.529,87.184-168.992c0-81.446-29.077-137.769-87.184-168.992
			c-27.534-15.22-56.783-24.928-87.759-29.117c-30.969-4.178-86.228-6.284-165.758-6.284h-527.68V690.421z"/>
		<path fill="#FFFFFF" d="M6768.106,947.333v517.254c0,22.839,5.536,40.533,16.63,53.095c11.077,12.562,30.003,22.269,56.778,29.117
			v36.54h-488.638v-36.54c27.528-7.601,46.633-17.499,57.347-29.686c10.703-12.17,16.061-29.686,16.061-52.525V144.62
			c0-23.581-5.357-41.477-16.061-53.665c-10.714-12.165-29.819-22.068-57.347-29.686v-36.54h979.577
			c119.292,0,213.921,6.853,283.894,20.554c69.972,13.701,130.944,37.679,182.952,71.934
			c60.403,39.59,105.528,93.254,135.353,160.999c28.282,65.478,42.443,135.502,42.443,210.101
			c0,254.254-141.86,403.065-425.559,446.453l303.971,430.473c53.515,75.364,92.713,123.89,117.572,145.589
			c24.841,21.694,55.236,33.68,91.188,35.964v36.54H7498.58v-36.54c38.928-6.082,58.406-19.783,58.406-41.103
			c0-13.707-17.937-46.817-53.82-99.342l-317.107-459.02H6768.106z M6768.106,690.421h527.64c78,0,133.057-2.284,165.177-6.853
			c32.115-4.563,61.542-14.075,88.323-28.541c58.101-31.206,87.172-87.529,87.172-168.992c0-81.446-29.071-137.769-87.172-168.992
			c-27.528-15.22-56.778-24.928-87.753-29.117c-30.97-4.178-86.223-6.284-165.747-6.284h-527.64V690.421z"/>
		<g>
			<g>
				<path fill="#FFFFFF" d="M8520.341,1523.142c-11.071,12.073-30.808,21.878-59.252,29.41v36.2h504.808v-36.2
					c-27.667-6.79-47.214-16.406-58.659-28.846c-11.463-12.447-17.183-30.348-17.183-53.734V162.228
					c0-22.626,5.519-40.159,16.59-52.606c11.054-12.441,30.809-22.056,59.252-28.846v-36.2h-504.808v36.2
					c28.444,7.55,48.181,17.361,59.252,29.416c11.055,12.073,16.59,29.41,16.59,52.036v1307.745
					C8536.931,1493.358,8531.396,1511.087,8520.341,1523.142z"/>
			</g>
		</g>
		<g>
			<g>
				<path fill="#FFFFFF" d="M10887.44,144.936c-22.125,17.591-41.472,26.383-58.061,26.383c-10.277,0-38.33-8.793-84.134-26.383
					c-133.518-54.275-244.903-91.528-334.164-111.794c-89.283-20.267-185.656-30.4-289.136-30.4
					c-246.479,0-431.336,56.766-554.576,170.275c-94.02,86.102-141.009,195.042-141.009,326.815
					c0,80.002,18.552,150.866,55.689,212.558c41.068,68.585,97.559,120,169.453,154.273c50.551,24.392,101.114,42.11,151.678,53.152
					c50.551,11.043,137.056,22.655,259.513,34.842l182.486,18.235c122.445,12.913,203.816,26.976,244.108,42.156
					c57.658,22.05,86.504,58.895,86.504,110.546c0,34.204-12.256,67.066-36.735,98.588c-24.496,31.545-57.284,56.806-98.353,75.79
					c-74.265,34.186-163.934,51.277-268.99,51.277c-96.39,0-198.299-15.985-305.726-47.956
					c-107.444-31.971-186.842-70.03-238.182-114.182c-33.979-28.921-50.954-60.518-50.954-94.773c0-3.032,0-7.993,0-14.846
					l-34.365-15.985l-175.379,382.517l34.364,17.125c22.108-16.734,38.313-25.118,48.584-25.118c8.683,0,35.141,9.903,79.397,29.686
					c208.553,98.968,419.868,148.438,633.962,148.438c119.275,0,231.07-14.075,335.35-42.208
					c139.829-37.271,242.923-94.704,309.281-172.295c73.472-85.175,110.201-182.532,110.201-292.077
					c0-69.224-15.605-134.259-46.806-195.111c-31.217-60.84-73.672-109.907-127.383-147.172
					c-52.934-35.757-113.572-63.516-181.894-83.305c-68.344-19.766-157.812-35.36-268.403-46.777l-186.042-18.253
					c-124.828-12.17-206.183-23.57-244.104-34.221c-73.471-21.285-110.206-61.214-110.206-119.77
					c0-35.734,14.409-68.81,43.255-99.233c28.829-30.4,66.543-53.216,113.164-68.436c63.988-19.766,137.851-29.652,221.593-29.652
					c189.598,0,354.7,47.208,495.324,141.59c45.804,29.686,68.729,57.48,68.729,83.351c0,4.569-0.408,10.668-1.185,18.27
					l33.179,18.27l193.148-366.974L10887.44,144.936z"/>
			</g>
		</g>
	</g>
</g>
</svg>
