<?xml version="1.0" encoding="utf-8"?>
<!-- Generator: Adobe Illustrator 22.0.1, SVG Export Plug-In . SVG Version: 6.00 Build 0)  -->
<svg version="1.1" id="圖層_1" xmlns="http://www.w3.org/2000/svg" xmlns:xlink="http://www.w3.org/1999/xlink" x="0px" y="0px"
	 viewBox="0 0 3114.908 2679.949" enable-background="new 0 0 3114.908 2679.949" xml:space="preserve">
<g>
	<path d="M1068.427,1557.249l-53.498,111.419h106.133L1068.427,1557.249z M1570.177,1532.238
		c-5.675-3.136-11.703-5.141-18.096-6.004c-6.392-0.863-17.78-1.288-34.186-1.288h-108.831v84.306h108.831
		c16.09,0,27.442-0.474,34.065-1.41c6.635-0.948,12.7-2.904,18.218-5.894c11.995-6.429,17.986-18.047,17.986-34.855
		C1588.164,1550.297,1582.173,1538.679,1570.177,1532.238z M2005.852,1532.238c-5.676-3.136-11.704-5.141-18.096-6.004
		c-6.38-0.863-17.78-1.288-34.187-1.288h-108.818v84.306h108.818c16.091,0,27.442-0.474,34.065-1.41
		c6.624-0.948,12.7-2.904,18.218-5.894c11.983-6.429,17.986-18.047,17.986-34.855
		C2023.838,1550.297,2017.835,1538.679,2005.852,1532.238z M2005.852,1532.238c-5.676-3.136-11.704-5.141-18.096-6.004
		c-6.38-0.863-17.78-1.288-34.187-1.288h-108.818v84.306h108.818c16.091,0,27.442-0.474,34.065-1.41
		c6.624-0.948,12.7-2.904,18.218-5.894c11.983-6.429,17.986-18.047,17.986-34.855
		C2023.838,1550.297,2017.835,1538.679,2005.852,1532.238z M1068.427,1557.249l-53.498,111.419h106.133L1068.427,1557.249z
		 M1570.177,1532.238c-5.675-3.136-11.703-5.141-18.096-6.004c-6.392-0.863-17.78-1.288-34.186-1.288h-108.831v84.306h108.831
		c16.09,0,27.442-0.474,34.065-1.41c6.635-0.948,12.7-2.904,18.218-5.894c11.995-6.429,17.986-18.047,17.986-34.855
		C1588.164,1550.297,1582.173,1538.679,1570.177,1532.238z M1068.427,1557.249l-53.498,111.419h106.133L1068.427,1557.249z
		 M1363.953,2020.717l-14.972,51.748h29.945L1363.953,2020.717z M1570.177,1532.238c-5.675-3.136-11.703-5.141-18.096-6.004
		c-6.392-0.863-17.78-1.288-34.186-1.288h-108.831v84.306h108.831c16.09,0,27.442-0.474,34.065-1.41
		c6.635-0.948,12.7-2.904,18.218-5.894c11.995-6.429,17.986-18.047,17.986-34.855
		C1588.164,1550.297,1582.173,1538.679,1570.177,1532.238z M2005.852,1532.238c-5.676-3.136-11.704-5.141-18.096-6.004
		c-6.38-0.863-17.78-1.288-34.187-1.288h-108.818v84.306h108.818c16.091,0,27.442-0.474,34.065-1.41
		c6.624-0.948,12.7-2.904,18.218-5.894c11.983-6.429,17.986-18.047,17.986-34.855
		C2023.838,1550.297,2017.835,1538.679,2005.852,1532.238z M2005.852,1532.238c-5.676-3.136-11.704-5.141-18.096-6.004
		c-6.38-0.863-17.78-1.288-34.187-1.288h-108.818v84.306h108.818c16.091,0,27.442-0.474,34.065-1.41
		c6.624-0.948,12.7-2.904,18.218-5.894c11.983-6.429,17.986-18.047,17.986-34.855
		C2023.838,1550.297,2017.835,1538.679,2005.852,1532.238z M1363.953,2020.717l-14.972,51.748h29.945L1363.953,2020.717z
		 M1068.427,1557.249l-53.498,111.419h106.133L1068.427,1557.249z M1570.177,1532.238c-5.675-3.136-11.703-5.141-18.096-6.004
		c-6.392-0.863-17.78-1.288-34.186-1.288h-108.831v84.306h108.831c16.09,0,27.442-0.474,34.065-1.41
		c6.635-0.948,12.7-2.904,18.218-5.894c11.995-6.429,17.986-18.047,17.986-34.855
		C1588.164,1550.297,1582.173,1538.679,1570.177,1532.238z M1068.427,1557.249l-53.498,111.419h106.133L1068.427,1557.249z
		 M1363.953,2020.717l-14.972,51.748h29.945L1363.953,2020.717z M1570.177,1532.238c-5.675-3.136-11.703-5.141-18.096-6.004
		c-6.392-0.863-17.78-1.288-34.186-1.288h-108.831v84.306h108.831c16.09,0,27.442-0.474,34.065-1.41
		c6.635-0.948,12.7-2.904,18.218-5.894c11.995-6.429,17.986-18.047,17.986-34.855
		C1588.164,1550.297,1582.173,1538.679,1570.177,1532.238z M1798.898,2020.717l-14.973,51.748h29.957L1798.898,2020.717z
		 M2005.852,1532.238c-5.676-3.136-11.704-5.141-18.096-6.004c-6.38-0.863-17.78-1.288-34.187-1.288h-108.818v84.306h108.818
		c16.091,0,27.442-0.474,34.065-1.41c6.624-0.948,12.7-2.904,18.218-5.894c11.983-6.429,17.986-18.047,17.986-34.855
		C2023.838,1550.297,2017.835,1538.679,2005.852,1532.238z M2005.852,1532.238c-5.676-3.136-11.704-5.141-18.096-6.004
		c-6.38-0.863-17.78-1.288-34.187-1.288h-108.818v84.306h108.818c16.091,0,27.442-0.474,34.065-1.41
		c6.624-0.948,12.7-2.904,18.218-5.894c11.983-6.429,17.986-18.047,17.986-34.855
		C2023.838,1550.297,2017.835,1538.679,2005.852,1532.238z M1798.898,2020.717l-14.973,51.748h29.957L1798.898,2020.717z
		 M1363.953,2020.717l-14.972,51.748h29.945L1363.953,2020.717z M1068.427,1557.249l-53.498,111.419h106.133L1068.427,1557.249z
		 M1570.177,1532.238c-5.675-3.136-11.703-5.141-18.096-6.004c-6.392-0.863-17.78-1.288-34.186-1.288h-108.831v84.306h108.831
		c16.09,0,27.442-0.474,34.065-1.41c6.635-0.948,12.7-2.904,18.218-5.894c11.995-6.429,17.986-18.047,17.986-34.855
		C1588.164,1550.297,1582.173,1538.679,1570.177,1532.238z M1567.139,1021.956c-765.824,0-1386.662,332.458-1386.662,742.551
		c0,410.104,620.838,742.551,1386.662,742.551c765.836,0,1386.662-332.447,1386.662-742.551
		C2953.801,1354.415,2332.975,1021.956,1567.139,1021.956z M2193.92,1787.063c5.869-1.556,9.941-3.573,12.225-6.064
		c2.273-2.479,3.415-6.137,3.415-10.962v-269.724c0-4.667-1.142-8.24-3.415-10.731c-2.285-2.491-6.356-4.509-12.225-6.064v-7.474
		h104.115v7.474c-5.858,1.398-9.941,3.379-12.214,5.943c-2.285,2.576-3.427,6.186-3.427,10.853v269.724
		c0,4.825,1.178,8.519,3.549,11.084c2.358,2.564,6.392,4.545,12.093,5.943v7.474H2193.92V1787.063z M1323.41,1785.884
		c5.687-1.568,9.625-3.609,11.837-6.125c2.2-2.516,3.306-6.125,3.306-10.84v-272.24c0-4.861-1.106-8.556-3.306-11.059
		c-2.212-2.516-6.149-4.557-11.837-6.125v-7.535h202.056c24.61,0,44.128,1.41,58.554,4.229c14.438,2.832,27.016,7.778,37.735,14.839
		c12.469,8.167,21.766,19.238,27.928,33.214c5.833,13.502,8.75,27.94,8.75,43.326c0,52.44-29.265,83.139-87.781,92.083l62.697,88.79
		c11.047,15.544,19.129,25.546,24.257,30.018c5.116,4.472,11.387,6.952,18.813,7.425v7.535h-116.694v-7.535
		c8.033-1.264,12.056-4.083,12.056-8.483c0-2.832-3.706-9.65-11.108-20.49l-65.407-94.672h-86.202v106.679
		c0,4.715,1.143,8.361,3.428,10.962c2.285,2.588,6.186,4.582,11.716,6.004v7.535H1323.41V1785.884z M562.982,1793.419H460.434
		v-7.535c5.785-1.568,9.795-3.609,12.044-6.125c2.236-2.516,3.366-6.125,3.366-10.84v-272.471c0-4.716-1.13-8.325-3.366-10.828
		c-2.248-2.516-6.259-4.557-12.044-6.125v-7.535h102.548v7.535c-5.773,1.41-9.796,3.415-12.032,6.004
		c-2.248,2.589-3.378,6.234-3.378,10.95v103.617h189.441v-103.617c0-4.716-1.13-8.361-3.366-10.95
		c-2.248-2.589-6.259-4.594-12.044-6.004v-7.535h102.548v7.535c-5.773,1.568-9.795,3.609-12.031,6.125
		c-2.248,2.504-3.379,6.113-3.379,10.828v272.471c0,4.715,1.13,8.325,3.379,10.84c2.236,2.516,6.259,4.557,12.031,6.125v7.535
		H721.603v-7.535c5.627-1.422,9.589-3.415,11.922-6.004c2.321-2.601,3.488-6.247,3.488-10.962v-115.867H547.572v115.867
		c0,4.715,1.167,8.361,3.5,10.962c2.321,2.588,6.295,4.582,11.91,6.004V1793.419z M1250.577,2077.812H613.065v-17.014h637.512
		V2077.812z M1272.258,1791.268h-119.489v-7.34c10.488-1.677,15.738-6.417,15.738-14.207c0-3.208-1.58-7.936-4.752-14.207
		l-22.313-43.994H993.917l-21.851,43.994c-3.014,6.113-4.509,10.926-4.509,14.438c0,6.72,5.299,11.387,15.896,13.976v7.34H876.081
		v-7.34c6.344-1.215,11.18-3.354,14.511-6.417c3.33-3.05,7.133-9.005,11.412-17.865l119.379-240.375
		c3.804-7.644,5.7-13.745,5.7-18.339c0-7.024-4.594-12.056-13.782-15.118v-7.328h115.09v7.328
		c-9.358,2.601-14.025,7.109-14.025,13.514c0,4.436,1.495,9.479,4.509,15.131l123.657,241.055
		c5.238,10.233,9.832,17.233,13.794,20.964c3.962,3.755,9.273,6.235,15.932,7.45V1791.268z M1399.379,2146.562l-10.464-35.159
		h-49.597l-11.12,35.159h-46.134l57.156-178.382h60.085l58.055,178.382H1399.379z M1598.652,2132.501
		c-15.191,11.205-35.122,16.808-59.805,16.808c-45.124,0-72.967-18.12-83.552-54.373l52.757-9.139
		c4.436,14.377,15.823,21.56,34.186,21.56c14.28,0,21.426-3.658,21.426-10.974c0-3.84-1.653-6.818-4.959-8.957
		c-3.293-2.139-9.2-4.023-17.695-5.676c-32.461-5.991-53.303-13.83-62.528-23.504c-9.224-9.674-13.83-21.049-13.83-34.126
		c0-16.808,6.624-30.796,19.87-41.952c13.247-11.156,32.303-16.735,57.168-16.735c37.699,0,62.613,14.596,74.729,43.775
		l-47.056,13.721c-4.885-11.934-14.79-17.901-29.714-17.901c-12.384,0-18.57,3.707-18.57,11.108c0,3.318,1.397,5.882,4.205,7.717
		c2.795,1.823,8.228,3.561,16.273,5.214c22.154,4.509,37.893,8.507,47.202,11.983c9.321,3.476,17.087,9.419,23.322,17.828
		c6.234,8.41,9.357,18.327,9.357,29.751C1621.438,2106.676,1613.843,2121.296,1598.652,2132.501z M1699.96,2146.562h-56.828V1968.18
		h56.828V2146.562z M1834.324,2146.562l-10.464-35.159h-49.597l-11.108,35.159h-46.133l57.144-178.382h60.085l58.055,178.382
		H1834.324z M1844.751,1662.239v106.679c0,4.715,1.143,8.361,3.428,10.962c2.285,2.588,6.186,4.582,11.703,6.004v7.535h-100.773
		v-7.535c5.675-1.568,9.613-3.609,11.825-6.125c2.212-2.516,3.318-6.125,3.318-10.84v-272.24c0-4.861-1.106-8.556-3.318-11.059
		c-2.212-2.516-6.149-4.557-11.825-6.125v-7.535h202.032c24.61,0,44.127,1.41,58.553,4.229c14.438,2.832,27.004,7.778,37.735,14.839
		c12.457,8.167,21.766,19.238,27.916,33.214c5.834,13.502,8.75,27.94,8.75,43.326c0,52.44-29.253,83.139-87.77,92.083l62.697,88.79
		c11.035,15.544,19.117,25.546,24.246,30.018c5.129,4.472,11.399,6.952,18.813,7.425v7.535H1995.4v-7.535
		c8.033-1.264,12.056-4.083,12.056-8.483c0-2.832-3.707-9.65-11.108-20.49l-65.396-94.672H1844.751z M2521.226,2079.015h-557.327
		v-18.229h557.327V2079.015z M2640.593,1551.257c-29.009-19.469-63.062-29.203-102.159-29.203c-17.281,0-32.509,2.042-45.707,6.113
		c-9.613,3.148-17.391,7.851-23.346,14.122c-5.943,6.271-8.92,13.089-8.92,20.466c0,12.08,7.583,20.308,22.738,24.707
		c7.814,2.188,24.597,4.545,50.338,7.049l38.379,3.767c22.799,2.358,41.259,5.566,55.357,9.65
		c14.086,4.083,26.591,9.807,37.517,17.184c11.071,7.681,19.833,17.804,26.263,30.346c6.441,12.554,9.662,25.971,9.662,40.251
		c0,22.593-7.584,42.669-22.727,60.231c-13.697,16.005-34.952,27.855-63.791,35.535c-21.511,5.809-44.565,8.714-69.175,8.714
		c-44.152,0-87.733-10.208-130.755-30.613c-9.127-4.083-14.584-6.125-16.37-6.125c-2.115,0-5.457,1.726-10.014,5.177l-7.097-3.536
		l36.18-78.886l7.085,3.293v3.063c0,7.061,3.5,13.587,10.512,19.542c10.585,9.115,26.955,16.966,49.122,23.552
		c22.155,6.599,43.168,9.893,63.05,9.893c21.669,0,40.166-3.524,55.479-10.573c8.47-3.913,15.24-9.127,20.283-15.629
		c5.055-6.502,7.583-13.283,7.583-20.344c0-10.646-5.955-18.242-17.84-22.799c-8.313-3.123-25.097-6.028-50.35-8.689l-37.638-3.767
		c-25.254-2.504-43.095-4.898-53.522-7.182c-10.427-2.273-20.854-5.931-31.281-10.962c-14.827-7.073-26.481-17.671-34.952-31.817
		c-7.656-12.724-11.484-27.344-11.484-43.836c0-27.187,9.686-49.657,29.083-67.413c25.412-23.407,63.548-35.123,114.384-35.123
		c21.341,0,41.211,2.09,59.635,6.271c18.4,4.181,41.381,11.873,68.92,23.066c9.443,3.622,15.227,5.432,17.354,5.432
		c3.415,0,7.401-1.811,11.971-5.432l6.842,3.549l-39.837,75.689l-6.842-3.768c0.158-1.568,0.243-2.831,0.243-3.767
		C2654.763,1563.119,2650.036,1557.383,2640.593,1551.257z M2023.838,1567.093c0-16.796-6.004-28.414-17.986-34.855
		c-5.676-3.136-11.704-5.141-18.096-6.004c-6.38-0.863-17.78-1.288-34.187-1.288h-108.818v84.306h108.818
		c16.091,0,27.442-0.474,34.065-1.41c6.624-0.948,12.7-2.904,18.218-5.894C2017.835,1595.519,2023.838,1583.901,2023.838,1567.093z
		 M1783.925,2072.465h29.957l-14.984-51.748L1783.925,2072.465z M1551.96,1607.842c6.635-0.948,12.7-2.904,18.218-5.894
		c11.995-6.429,17.986-18.047,17.986-34.855c0-16.796-5.991-28.414-17.986-34.855c-5.675-3.136-11.703-5.141-18.096-6.004
		c-6.392-0.863-17.78-1.288-34.186-1.288h-108.831v84.306h108.831C1533.985,1609.252,1545.337,1608.778,1551.96,1607.842z
		 M1348.98,2072.465h29.945l-14.972-51.748L1348.98,2072.465z M1014.929,1668.668h106.133l-52.635-111.419L1014.929,1668.668z
		 M1570.177,1532.238c-5.675-3.136-11.703-5.141-18.096-6.004c-6.392-0.863-17.78-1.288-34.186-1.288h-108.831v84.306h108.831
		c16.09,0,27.442-0.474,34.065-1.41c6.635-0.948,12.7-2.904,18.218-5.894c11.995-6.429,17.986-18.047,17.986-34.855
		C1588.164,1550.297,1582.173,1538.679,1570.177,1532.238z M1068.427,1557.249l-53.498,111.419h106.133L1068.427,1557.249z
		 M1363.953,2020.717l-14.972,51.748h29.945L1363.953,2020.717z M2005.852,1532.238c-5.676-3.136-11.704-5.141-18.096-6.004
		c-6.38-0.863-17.78-1.288-34.187-1.288h-108.818v84.306h108.818c16.091,0,27.442-0.474,34.065-1.41
		c6.624-0.948,12.7-2.904,18.218-5.894c11.983-6.429,17.986-18.047,17.986-34.855
		C2023.838,1550.297,2017.835,1538.679,2005.852,1532.238z M2005.852,1532.238c-5.676-3.136-11.704-5.141-18.096-6.004
		c-6.38-0.863-17.78-1.288-34.187-1.288h-108.818v84.306h108.818c16.091,0,27.442-0.474,34.065-1.41
		c6.624-0.948,12.7-2.904,18.218-5.894c11.983-6.429,17.986-18.047,17.986-34.855
		C2023.838,1550.297,2017.835,1538.679,2005.852,1532.238z M1570.177,1532.238c-5.675-3.136-11.703-5.141-18.096-6.004
		c-6.392-0.863-17.78-1.288-34.186-1.288h-108.831v84.306h108.831c16.09,0,27.442-0.474,34.065-1.41
		c6.635-0.948,12.7-2.904,18.218-5.894c11.995-6.429,17.986-18.047,17.986-34.855
		C1588.164,1550.297,1582.173,1538.679,1570.177,1532.238z M1363.953,2020.717l-14.972,51.748h29.945L1363.953,2020.717z
		 M1068.427,1557.249l-53.498,111.419h106.133L1068.427,1557.249z M1570.177,1532.238c-5.675-3.136-11.703-5.141-18.096-6.004
		c-6.392-0.863-17.78-1.288-34.186-1.288h-108.831v84.306h108.831c16.09,0,27.442-0.474,34.065-1.41
		c6.635-0.948,12.7-2.904,18.218-5.894c11.995-6.429,17.986-18.047,17.986-34.855
		C1588.164,1550.297,1582.173,1538.679,1570.177,1532.238z M1068.427,1557.249l-53.498,111.419h106.133L1068.427,1557.249z
		 M1363.953,2020.717l-14.972,51.748h29.945L1363.953,2020.717z M2005.852,1532.238c-5.676-3.136-11.704-5.141-18.096-6.004
		c-6.38-0.863-17.78-1.288-34.187-1.288h-108.818v84.306h108.818c16.091,0,27.442-0.474,34.065-1.41
		c6.624-0.948,12.7-2.904,18.218-5.894c11.983-6.429,17.986-18.047,17.986-34.855
		C2023.838,1550.297,2017.835,1538.679,2005.852,1532.238z M2005.852,1532.238c-5.676-3.136-11.704-5.141-18.096-6.004
		c-6.38-0.863-17.78-1.288-34.187-1.288h-108.818v84.306h108.818c16.091,0,27.442-0.474,34.065-1.41
		c6.624-0.948,12.7-2.904,18.218-5.894c11.983-6.429,17.986-18.047,17.986-34.855
		C2023.838,1550.297,2017.835,1538.679,2005.852,1532.238z M1570.177,1532.238c-5.675-3.136-11.703-5.141-18.096-6.004
		c-6.392-0.863-17.78-1.288-34.186-1.288h-108.831v84.306h108.831c16.09,0,27.442-0.474,34.065-1.41
		c6.635-0.948,12.7-2.904,18.218-5.894c11.995-6.429,17.986-18.047,17.986-34.855
		C1588.164,1550.297,1582.173,1538.679,1570.177,1532.238z M1363.953,2020.717l-14.972,51.748h29.945L1363.953,2020.717z
		 M1068.427,1557.249l-53.498,111.419h106.133L1068.427,1557.249z M1068.427,1557.249l-53.498,111.419h106.133L1068.427,1557.249z
		 M1068.427,1557.249l-53.498,111.419h106.133L1068.427,1557.249z M1570.177,1532.238c-5.675-3.136-11.703-5.141-18.096-6.004
		c-6.392-0.863-17.78-1.288-34.186-1.288h-108.831v84.306h108.831c16.09,0,27.442-0.474,34.065-1.41
		c6.635-0.948,12.7-2.904,18.218-5.894c11.995-6.429,17.986-18.047,17.986-34.855
		C1588.164,1550.297,1582.173,1538.679,1570.177,1532.238z M1570.177,1532.238c-5.675-3.136-11.703-5.141-18.096-6.004
		c-6.392-0.863-17.78-1.288-34.186-1.288h-108.831v84.306h108.831c16.09,0,27.442-0.474,34.065-1.41
		c6.635-0.948,12.7-2.904,18.218-5.894c11.995-6.429,17.986-18.047,17.986-34.855
		C1588.164,1550.297,1582.173,1538.679,1570.177,1532.238z M2005.852,1532.238c-5.676-3.136-11.704-5.141-18.096-6.004
		c-6.38-0.863-17.78-1.288-34.187-1.288h-108.818v84.306h108.818c16.091,0,27.442-0.474,34.065-1.41
		c6.624-0.948,12.7-2.904,18.218-5.894c11.983-6.429,17.986-18.047,17.986-34.855
		C2023.838,1550.297,2017.835,1538.679,2005.852,1532.238z M2005.852,1532.238c-5.676-3.136-11.704-5.141-18.096-6.004
		c-6.38-0.863-17.78-1.288-34.187-1.288h-108.818v84.306h108.818c16.091,0,27.442-0.474,34.065-1.41
		c6.624-0.948,12.7-2.904,18.218-5.894c11.983-6.429,17.986-18.047,17.986-34.855
		C2023.838,1550.297,2017.835,1538.679,2005.852,1532.238z"/>
	<path d="M1567.139,2644.449c-205.905,0-405.672-23.121-593.75-68.721c-181.81-44.08-345.14-107.212-485.452-187.642
		c-69.243-39.692-132.128-83.384-186.907-129.863c-55.406-47.011-103.016-97.297-141.506-149.461
		c-39.3-53.26-69.495-109.032-89.748-165.767c-20.823-58.33-31.381-118.38-31.381-178.483s10.558-120.153,31.381-178.483
		c20.253-56.735,50.448-112.507,89.748-165.767c38.49-52.164,86.1-102.45,141.506-149.461
		c54.779-46.479,117.664-90.171,186.907-129.863c140.313-80.43,303.643-143.563,485.452-187.643
		c188.078-45.6,387.845-68.721,593.75-68.721c205.906,0,405.673,23.121,593.751,68.721
		c181.809,44.08,345.139,107.212,485.451,187.643c69.244,39.692,132.128,83.384,186.908,129.863
		c55.405,47.011,103.015,97.297,141.505,149.461c39.3,53.26,69.495,109.032,89.748,165.767
		c20.823,58.33,31.381,118.38,31.381,178.483s-10.558,120.153-31.381,178.483c-20.253,56.735-50.448,112.507-89.748,165.767
		c-38.49,52.164-86.1,102.45-141.505,149.461c-54.78,46.479-117.664,90.171-186.908,129.863
		c-140.313,80.43-303.643,143.563-485.451,187.642C1972.812,2621.328,1773.045,2644.449,1567.139,2644.449z M1567.139,901.574
		c-404.612,0-784.878,90.245-1070.747,254.112C212.01,1318.699,55.395,1534.918,55.395,1764.511s156.615,445.812,440.997,608.825
		c285.869,163.867,666.135,254.113,1070.747,254.113s784.878-90.246,1070.748-254.113
		c284.381-163.013,440.996-379.232,440.996-608.825s-156.615-445.812-440.996-608.825
		C2352.017,991.819,1971.751,901.574,1567.139,901.574z"/>
	<path d="M1567.139,895.782c0,0-578.1,1.399-604.918,0c-26.818-1.399-52.47-24.019-58.3-30.549
		c-5.83-6.53-8.395-17.956-8.162-28.683c0.233-10.727,5.13-21.921,7.929-25.885c2.798-3.964,10.028-10.727,10.028-15.158
		s-4.897-8.862-9.328-14.225c-4.431-5.364-7.229-17.257-6.763-25.885c0.466-8.628,4.897-14.925,18.656-23.553
		s53.403-3.964,62.497-3.032c9.095,0.933,35.213,10.727,47.339,15.158s16.79,2.565,17.723-3.032
		c0.933-5.597-8.045-10.028-8.045-10.028c4.547,0.35,11.194-14.342,1.399-9.794c-9.794,4.547-24.486-4.897-15.041-9.095
		s4.897-15.741,4.897-15.741c-9.095,0-8.745-5.947-8.745-5.947c3.498-2.099,10.494-11.194,3.498-11.893
		c-6.996-0.7-8.395-8.045-8.395-8.045s3.498,3.148,9.445,2.798s4.198-12.943-0.35-15.041c-4.547-2.099-10.144-13.642-10.144-13.642
		c9.095,4.198,15.041-5.597,15.041-5.597c-2.798-4.897,4.547-10.494,4.547-10.494c13.992,3.848,32.881-17.607,37.545-22.737
		s-1.399-6.53-1.399-6.53c-14.458,4.198-34.513,2.798-53.636-6.063c-19.122-8.862-25.652-43.375-25.652-60.632
		s16.324-45.94,17.49-52.47c1.166-6.53,3.032-5.13-2.099-10.96c-5.13-5.83-2.332-11.427-2.332-11.427
		c2.565,3.032,9.794,4.664,10.727-3.032s-5.13-10.261-6.063-27.051s9.094-28.217,9.094-28.217
		c4.313,13.642,13.526,10.494,13.526,10.494c0.7-23.087-8.395-27.984-11.543-40.227c-3.148-12.243,9.095-21.687,9.095-21.687
		c-3.498,24.486,16.79,26.585,16.79,26.585c-3.498-6.296,1.399-19.939,1.399-19.939c2.448,6.646,19.239,19.939,23.436,21.338
		c4.198,1.399,5.947-4.897,5.947-13.292c0-8.395-10.844-23.087-16.79-30.782c-5.947-7.696-8.045-32.181-9.445-48.272
		c-1.399-16.091,7.346-32.531,9.445-41.276c2.099-8.745,30.432-31.132,35.679-41.626c5.247-10.494,5.947-34.28,5.947-34.28
		c7.346,4.547,7.346,20.288,7.696,30.083c0.35,9.794,8.745,22.387,13.992,27.984c5.247,5.597,18.8,21.971,17.124,38.176
		c-1.429,13.822-0.217,28.402,1.532,36.448c1.635,7.52,4.431,17.373,10.727,24.369s13.992,19.589,12.593,41.276
		c-1.399,21.687-22.737,24.836-22.737,24.836c2.798-3.148,12.593-9.445,13.292-25.885s-40.926-35.33-44.424-39.177
		c-3.498-3.848,0.7-10.144-0.7-15.741c-1.399-5.597-11.543-10.844-14.342-14.342c-2.798-3.498-1.749-14.167-1.749-14.167
		s4.897,4.722,10.144,4.722c5.247,0,10.144-2.099,10.144-15.391s-10.494-26.235-23.087-26.235s-19.239,20.288-20.288,36.729
		c-1.049,16.441,15.041,51.071,23.786,65.412c8.745,14.342,13.992,43.375,11.893,55.618c-2.099,12.243-29.383,46.173-39.877,55.268
		c-10.494,9.095-39.527,42.326-46.873,59.466c-7.346,17.14,4.198,41.276,13.292,50.371c9.095,9.095,40.227,8.745,44.075-6.296
		s46.523-67.511,57.717-80.803c11.194-13.292,56.667-79.754,55.618-83.602c-1.049-3.848-10.494-4.547-11.543-9.445
		c-1.049-4.897,5.247-7.346,11.543-9.095c6.296-1.749,13.642-10.494,11.893-20.288c-1.749-9.794-14.692-6.296-16.091-9.794
		s-0.35-5.247,6.996-10.494c7.346-5.247,8.045-16.441,5.597-21.338c-2.449-4.897-15.041,1.749-21.688,4.897
		c-6.646,3.148-12.943-3.848-6.646-5.597s11.893-10.494,14.342-16.441c2.449-5.947,1.399-10.844-3.498-15.391
		c-4.897-4.547-4.547-1.399-4.547-11.543c0-10.144-8.045-13.642-8.045-3.848s-9.798,11.038-11.125,2.013
		c-1.118-7.61-2.993-11.849-3.917-18.804c-1.245-9.372-0.541-19.945-2.449-23.961c-3.323-6.996-17.14-4.547-17.315-9.969
		c-0.175-5.422,8.745-8.92,8.395-14.167c-0.35-5.247-8.57-6.646-12.068-12.418c-3.498-5.772,6.821-10.144,9.794-12.243
		s7.521-14.692-1.399-14.866c-8.92-0.175-8.395-8.045-4.722-9.095c3.673-1.049,13.642-12.593,14.692-18.364
		c1.049-5.772-1.574-12.943,6.821-10.494c8.395,2.449,20.638,3.498,24.486-14.342s17.14-10.144,17.14-2.099
		s18.539,17.84,19.938,9.794s7.696-5.597,7.696-4.429s6.764,13.619,12.011,5.924c5.247-7.696,11.923-6.46,11.95-0.27
		c0.028,6.407-6.121,16.965-3.673,22.737c2.882,6.793,13.642,12.418,16.79,6.821s6.296-5.247,8.395-1.399
		c2.099,3.848,9.445,4.198,13.642-1.399c4.198-5.597,8.745-0.7,6.646,3.848c-1.765,3.824-3.148,15.041-2.798,20.638
		c0.35,5.597,10.494,25.185,23.786,24.836s13.992,8.395,12.593,12.243c-1.399,3.848-6.646,8.745-13.992,12.943
		c-7.346,4.198-13.992-1.049-25.186-8.045c-11.193-6.996-21.338-4.198-22.037,7.696s19.589,13.992,21.338,12.243
		s7.346-7.696,11.893-2.099s16.44,6.996,22.387,8.045c5.947,1.049,10.844-2.798,14.342-10.494c3.498-7.696,8.745-7.346,11.893-4.198
		c3.148,3.148,2.798,7.696-1.749,19.938c-4.547,12.243-27.284,12.593-37.428,3.148c-10.144-9.445-18.714-6.646-21.338,4.198
		c-1.804,7.457-11.31,3.857-15.741,0.35c-4.198-3.323-14.167-11.543-16.091-8.92c-3.231,4.406-0.885,13.17,4.373,17.14
		c9.992,7.545,32.504,13.254,32.706,18.714c0.175,4.722-8.009,7.909-8.745,10.319c-1.328,4.349,0.7,9.27,2.449,11.019
		c1.749,1.749,8.745,1.749,13.992-6.996c5.247-8.745,14.167-3.498,20.113,0.7c5.947,4.198,16.091,4.023,19.239,0
		c2.793-3.569,3.84-10.107,2.993-14.518c-0.564-2.936-3.167-15.215,1.03-12.067c4.198,3.148,14.342,15.741,16.79,26.934
		c2.448,11.194-5.247,19.239-11.194,23.087s-2.449,12.943-1.749,16.441c0.7,3.498,17.49,22.164,31.307,16.965
		c17.665-6.646,60.082-5.247,66.986-4.722c6.021,0.457,12.243-1.632,14.342-14.692c3.005-18.701-16.091-40.926-27.984-62.264
		c-11.893-21.338-13.663-34.351,19.589-51.537c41.509-21.454,120.331-23.67,120.331-23.67s78.821,2.215,120.331,23.67
		c33.251,17.186,31.482,30.199,19.589,51.537c-11.893,21.338-30.989,43.563-27.984,62.264c2.099,13.059,8.321,15.149,14.342,14.692
		c6.904-0.524,49.322-1.924,66.986,4.722c13.817,5.198,30.607-13.467,31.307-16.965c0.7-3.498,4.198-12.593-1.749-16.441
		c-5.947-3.848-13.642-11.893-11.193-23.087s12.593-23.786,16.79-26.934c4.198-3.148,1.594,9.131,1.03,12.067
		c-0.847,4.41,0.199,10.949,2.993,14.518c3.148,4.023,13.292,4.198,19.239,0s14.866-9.445,20.113-0.7
		c5.247,8.745,12.243,8.745,13.992,6.996s3.777-6.67,2.449-11.019c-0.736-2.41-8.92-5.597-8.745-10.319
		c0.202-5.46,22.714-11.169,32.706-18.714c5.257-3.97,7.604-12.734,4.372-17.14c-1.924-2.623-11.893,5.597-16.091,8.92
		c-4.431,3.508-13.937,7.107-15.741-0.35c-2.623-10.844-11.193-13.642-21.338-4.198c-10.144,9.445-32.881,9.095-37.428-3.148
		c-4.547-12.243-4.897-16.79-1.749-19.938c3.148-3.148,8.395-3.498,11.893,4.198c3.498,7.696,8.395,11.543,14.342,10.494
		c5.947-1.049,17.84-2.449,22.387-8.045c4.547-5.597,10.144,0.35,11.893,2.099s22.037-0.35,21.338-12.243
		c-0.7-11.893-10.844-14.692-22.037-7.696c-11.193,6.996-17.84,12.243-25.185,8.045c-7.346-4.198-12.593-9.095-13.992-12.943
		s-0.7-12.593,12.593-12.243c13.292,0.35,23.437-19.239,23.786-24.836c0.35-5.597-1.033-16.814-2.798-20.638
		c-2.099-4.547,2.449-9.445,6.646-3.848c4.198,5.597,11.543,5.247,13.642,1.399s5.247-4.198,8.395,1.399s13.908-0.028,16.79-6.821
		c2.449-5.772-3.701-16.33-3.673-22.737c0.027-6.19,6.703-7.426,11.95,0.27c5.247,7.696,12.011-4.756,12.011-5.924
		s6.296-3.616,7.696,4.429s19.938-1.749,19.938-9.794s13.292-15.741,17.14,2.099s16.091,16.79,24.486,14.342
		c8.395-2.449,5.772,4.722,6.821,10.494c1.049,5.772,11.019,17.315,14.692,18.364c3.673,1.049,4.198,8.92-4.722,9.095
		c-8.92,0.175-4.373,12.768-1.399,14.866c2.973,2.099,13.292,6.471,9.794,12.243c-3.498,5.772-11.718,7.171-12.068,12.418
		c-0.35,5.247,8.57,8.745,8.395,14.167c-0.175,5.422-13.992,2.973-17.315,9.969c-1.908,4.016-1.204,14.589-2.449,23.961
		c-0.924,6.954-2.798,11.194-3.917,18.804c-1.326,9.025-11.125,7.781-11.125-2.013s-8.045-6.296-8.045,3.848
		c0,10.144,0.35,6.996-4.547,11.543c-4.897,4.547-5.947,9.445-3.498,15.391c2.448,5.947,8.045,14.692,14.342,16.441
		s0,8.745-6.646,5.597c-6.646-3.148-19.239-9.794-21.688-4.897c-2.449,4.897-1.749,16.091,5.597,21.338
		c7.346,5.247,8.395,6.996,6.996,10.494c-1.399,3.498-14.342,0-16.091,9.794c-1.749,9.794,5.597,18.539,11.893,20.288
		s12.593,4.198,11.543,9.095s-10.494,5.597-11.543,9.445c-1.049,3.848,44.424,70.309,55.618,83.602
		c11.193,13.292,53.869,65.762,57.717,80.803c3.848,15.041,34.98,15.391,44.074,6.296c9.095-9.095,20.638-33.231,13.292-50.371
		c-7.346-17.14-36.379-50.371-46.873-59.466s-37.778-43.025-39.877-55.268c-2.099-12.243,3.148-41.276,11.893-55.618
		c8.745-14.342,24.836-48.972,23.786-65.412c-1.05-16.441-7.696-36.729-20.288-36.729s-23.087,12.943-23.087,26.235
		s4.897,15.391,10.144,15.391s10.144-4.722,10.144-4.722s1.049,10.669-1.749,14.167c-2.798,3.498-12.943,8.745-14.342,14.342
		s2.798,11.893-0.7,15.741c-3.498,3.848-45.124,22.737-44.424,39.177s10.494,22.737,13.292,25.885c0,0-21.338-3.148-22.737-24.836
		c-1.399-21.688,6.296-34.28,12.593-41.276s9.092-16.849,10.727-24.369c1.749-8.045,2.961-22.625,1.532-36.448
		c-1.675-16.205,11.877-32.579,17.124-38.176c5.247-5.597,13.642-18.189,13.992-27.984c0.35-9.794,0.35-25.535,7.696-30.083
		c0,0,0.7,23.786,5.947,34.28c5.247,10.494,33.581,32.881,35.679,41.626c2.099,8.745,10.844,25.185,9.445,41.276
		c-1.399,16.091-3.498,40.577-9.445,48.272s-16.79,22.387-16.79,30.782c0,8.395,1.749,14.692,5.947,13.292
		c4.198-1.399,20.988-14.692,23.437-21.338c0,0,4.897,13.642,1.399,19.939c0,0,20.288-2.099,16.79-26.585
		c0,0,12.243,9.445,9.095,21.687c-3.148,12.243-12.243,17.14-11.543,40.227c0,0,9.213,3.148,13.526-10.494
		c0,0,10.027,11.427,9.094,28.217c-0.933,16.79-6.996,19.355-6.063,27.051c0.933,7.696,8.162,6.063,10.727,3.032
		c0,0,2.798,5.597-2.332,11.427c-5.13,5.83-3.265,4.431-2.099,10.96c1.166,6.53,17.49,35.213,17.49,52.47s-6.53,51.77-25.652,60.632
		c-19.122,8.862-39.177,10.261-53.636,6.063c0,0-6.063,1.399-1.399,6.53s23.553,26.585,37.545,22.737c0,0,7.346,5.597,4.547,10.494
		c0,0,5.947,9.794,15.041,5.597c0,0-5.597,11.543-10.144,13.642c-4.547,2.099-6.296,14.692-0.35,15.041
		c5.947,0.35,9.445-2.798,9.445-2.798s-1.399,7.346-8.395,8.045c-6.996,0.7,0,9.794,3.498,11.893c0,0,0.35,5.947-8.745,5.947
		c0,0-4.547,11.543,4.897,15.741s-5.247,13.642-15.041,9.095s-3.148,10.144,1.399,9.794c0,0-8.978,4.431-8.045,10.028
		c0.933,5.597,5.597,7.462,17.723,3.032c12.126-4.431,38.245-14.225,47.339-15.158s48.739-5.597,62.497,3.032
		s18.189,14.925,18.656,23.553c0.466,8.628-2.332,20.522-6.763,25.885c-4.431,5.364-9.328,9.794-9.328,14.225
		s7.229,11.194,10.028,15.158c2.798,3.964,7.696,15.158,7.929,25.885c0.233,10.727-2.332,22.154-8.162,28.683
		c-5.83,6.53-31.482,29.15-58.3,30.549C2145.239,897.181,1567.139,895.782,1567.139,895.782z M1746.935,460.516l9.445-11.543
		c0,0,5.597-10.494,2.798-15.741c-2.798-5.247-5.247-4.897-12.243-3.848c-6.996,1.049-11.194,3.277-11.893-0.635
		s5.247-6.011,6.996-7.76c1.749-1.749,2.798-3.498,2.099-6.646c-0.7-3.148-4.198-7.346-7.696-7.696c-3.498-0.35-6.646,0-6.646-4.547
		c0-4.547,8.745-4.547,8.745-9.794c0-5.247-8.745-6.996-11.543-6.296c-2.798,0.7-4.897,9.095-10.144,9.445s-4.897-8.339-9.794-9.592
		c-4.897-1.252-8.045,5.744-12.943,4.345c-4.897-1.399-4.198-11.543-10.144-11.893c-5.947-0.35-6.646,1.049-9.794,4.547
		c-3.148,3.498-5.597,12.593-1.749,17.84s13.992,32.181,15.391,37.428c1.399,5.247,4.547,15.391,9.445,15.391
		c4.897,0,12.593-3.148,16.091,2.099c3.498,5.247,2.449,18.19,4.897,20.638s5.597,6.996,11.194,2.449
		C1735.042,474.159,1743.865,464.269,1746.935,460.516z M1715.211,582.363c-0.709,13.059-3.955,26.118-7.219,42.909
		c-3.265,16.79-20.521,43.841-27.517,53.169c-6.996,9.328-27.984,30.316-32.648,35.446s-9.328,13.059-3.731,16.324
		c5.597,3.265,19.122,2.798,29.383,2.332c10.261-0.466,34.047-5.597,43.841-6.996c9.794-1.399,31.715-5.13,40.577-4.664
		c8.862,0.466,27.517,9.794,37.312,14.458c9.794,4.664,63.43,22.853,87.216,28.917s107.738,3.731,122.196,3.265
		c14.458-0.466,13.526-7.929,15.858-10.261c2.332-2.332,3.731-8.395,2.798-12.126c-0.933-3.731-11.66-3.731-11.66-10.727
		s4.664-4.664,7.462-7.929c2.798-3.265-1.866-7.929,3.265-13.059s19.122-3.731,22.854-2.332c3.731,1.399,10.727,7.929,15.857,3.731
		c5.13-4.198-0.933-18.656,0.467-21.921c1.399-3.265,4.664-0.933,6.063-3.731s1.866-10.261,0-16.79
		c-1.865-6.53-16.324-11.66-32.648-17.257c-16.324-5.597-23.32-22.854-37.778-22.854c-14.458,0-25.652,40.11-25.652,40.11
		c-4.198-7.929-2.332-22.387,0.95-30.316s-0.483-28.917-0.017-37.778c0.466-8.862-8.862-21.454-13.526-21.454
		c-4.664,0-6.53,0.933-9.794,6.063s-2.798,15.391-1.866,21.454c0.933,6.063,4.198,16.79,4.198,22.853s-20.988,33.114-25.185,33.114
		c-4.198,0-5.597-10.261-10.261-10.261c-4.664,0-9.328,7.929-13.168,7.462c-3.84-0.466-0.357-8.862-9.685-7.929
		c-9.328,0.933-15.858,20.521-20.988,20.055c-5.13-0.466,0-19.122-6.063-18.656c-6.063,0.466-7.929,18.189-13.526,18.189
		s-2.798-20.521-8.862-20.055c-6.063,0.466-8.861,19.122-13.992,17.723c-5.13-1.399-3.265-14.925-7.462-14.925
		c-4.198,0-4.198,2.332-7.462,7.929c-3.265,5.597-4.664,10.727-9.794,12.126c-5.13,1.399-8.862-8.395-13.526-5.13
		c-4.664,3.265-2.798,16.324-2.798,16.324c-16.324-8.395-14.925-36.379-14.458-40.577c0.466-4.198,2.332-9.328-9.328-10.261
		s-17.257-15.857-17.257-15.857c4.664,1.399,17.257-0.466,18.19-3.731c0.933-3.265-2.332-5.597-2.332-8.862s2.798-7.462,4.664-8.395
		s8.862,0.466,7.929-8.395c-0.933-8.862-16.123-15.391-16.123-15.391s5.396-6.063,11.926-6.063s12.593,0.466,19.122,2.798
		s14.458,11.194,19.589,15.391s6.996,19.122,8.861,22.854c1.866,3.731,9.328,4.198,12.593,2.377
		c3.265-1.82,11.194-5.642,17.723-4.243s10.261,4.664,14.925,4.198c4.664-0.466,9.794-2.798,10.727-6.996
		s-3.731-10.261-6.063-14.925c-2.332-4.664-10.261-22.387-13.526-29.383s-2.798-20.522-0.933-33.581
		c1.866-13.059,20.055-23.786,34.047-24.719c13.992-0.933,14.458,2.798,21.454,6.996s16.324,11.194,27.517,13.526
		c11.193,2.332,13.526-2.332,17.257-5.13c3.731-2.798,4.664-10.727,2.798-18.189s-12.126-14.925-16.79-19.122
		s-20.521-7.462-28.45-9.794c-7.929-2.332-20.988,3.731-24.719,6.954s-13.992,6.105-20.988,3.773s-13.526-7.929-17.257-14.458
		c-3.731-6.53-10.727-15.858-15.391-15.391c-4.664,0.466-5.13,3.265-5.13,8.862s-3.265,13.526-6.53,14.458
		c-3.265,0.933-6.063-4.198-12.126-3.265c-6.063,0.933-6.53,10.727-9.794,13.992c-3.265,3.265-8.395-4.198-12.593,0
		c-4.198,4.198,1.865,13.992-2.798,18.19s-12.593-3.731-18.189,0c-5.597,3.731-2.798,11.194-7.262,13.992
		c-4.463,2.798-8.129-1.866-12.793,1.866c-4.664,3.731-1.866,13.059-8.395,14.925s-3.731-2.798-7.929-5.597
		c-4.198-2.798-15.634,0-15.634,0C1716.367,540.853,1715.92,569.304,1715.211,582.363z M1767.573,759.944
		c-14.925-3.431-36.625-4.008-37.778,8.408c-1.17,12.593,38.128,25.056,43.725,26.921c5.597,1.866,54.766,15.858,79.754,22.387
		c24.988,6.53,84.056,9.688,118.582,9.794c41.976,0.129,110.863-0.889,133.973-4.897c25.306-4.389,52.47-14.342,64.013-21.338
		c10.85-6.576,31.867-20.742,30.934-32.868c-0.933-12.126-27.669-6.076-40.728-4.211s-40.926,11.543-69.96,18.889
		c-28.895,7.311-95.367,16.44-133.623,16.44c-34.63,0-98.993-11.893-98.993-11.893
		C1840.811,783.323,1782.498,763.375,1767.573,759.944z M1888.487,852.407c-8.861,0-78.355-13.059-94.212-18.656
		c-15.858-5.597-46.173-15.391-64.505-20.988c-18.332-5.597-46.964-20.12-64.687-20.12s-21.977,4.543-28.596,11.681
		c-6.091,6.57-18.54,23.141-7.592,31.435c11.329,8.582,94.021,31.106,117.807,34.838c23.786,3.731,210.345,7.462,218.585,7.929
		c8.24,0.466,43.064,0.466,58.455,0c15.391-0.466,106.208-4.119,133.623-7.929c23.495-3.265,48.013-12.965,48.739-23.553
		c1.341-19.578-7.054-31.657-23.32-22.853c-14.817,8.019-68.094,21.688-94.679,26.351c-26.584,4.664-122.818,4.664-122.818,4.664
		C1956.269,855.236,1897.349,852.407,1888.487,852.407z M1415.827,478.706c5.597,4.547,8.745,0,11.194-2.449
		c2.448-2.449,1.399-15.391,4.897-20.638c3.498-5.247,11.194-2.099,16.091-2.099c4.897,0,8.045-10.144,9.445-15.391
		s11.543-32.181,15.391-37.428s1.399-14.342-1.749-17.84c-3.148-3.498-3.848-4.897-9.794-4.547
		c-5.947,0.35-5.247,10.494-10.144,11.893c-4.897,1.399-8.045-5.597-12.943-4.345c-4.897,1.252-4.547,9.941-9.794,9.592
		s-7.346-8.745-10.144-9.445c-2.798-0.7-11.543,1.049-11.543,6.296c0,5.247,8.745,5.247,8.745,9.794
		c0,4.547-3.148,4.198-6.646,4.547c-3.498,0.35-6.996,4.547-7.696,7.696c-0.7,3.148,0.35,4.897,2.099,6.646
		c1.749,1.749,7.696,3.848,6.996,7.76s-4.897,1.685-11.893,0.635c-6.996-1.049-9.445-1.399-12.243,3.848
		c-2.798,5.247,2.798,15.741,2.798,15.741l9.445,11.543C1401.407,464.269,1410.23,474.159,1415.827,478.706z M1432.127,531.992
		c0,0-11.436-2.798-15.634,0c-4.198,2.798-1.399,7.462-7.929,5.597c-6.53-1.866-3.731-11.194-8.395-14.925
		c-4.664-3.731-8.33,0.933-12.793-1.866c-4.464-2.798-1.665-10.261-7.262-13.992s-13.526,4.198-18.189,0
		c-4.664-4.198,1.399-13.992-2.798-18.19c-4.198-4.198-9.328,3.265-12.593,0c-3.265-3.265-3.731-13.059-9.794-13.992
		c-6.063-0.933-8.862,4.198-12.126,3.265s-6.53-8.862-6.53-14.458s-0.466-8.395-5.13-8.862s-11.66,8.862-15.391,15.391
		c-3.731,6.53-10.261,12.126-17.257,14.458s-17.257-0.55-20.988-3.773s-16.79-9.286-24.719-6.954
		c-7.929,2.332-23.786,5.597-28.45,9.794s-14.925,11.66-16.79,19.122c-1.866,7.462-0.933,15.391,2.798,18.189
		c3.731,2.798,6.063,7.462,17.257,5.13c11.193-2.332,20.521-9.328,27.517-13.526s7.462-7.929,21.454-6.996
		c13.992,0.933,32.181,11.66,34.047,24.719c1.866,13.059,2.332,26.585-0.933,33.581s-11.193,24.719-13.526,29.383
		c-2.332,4.664-6.996,10.727-6.063,14.925c0.933,4.198,6.063,6.53,10.727,6.996c4.664,0.466,8.395-2.798,14.925-4.198
		s14.458,2.422,17.723,4.243c3.265,1.82,10.727,1.354,12.593-2.377s3.731-18.656,8.862-22.854s13.059-13.059,19.589-15.391
		s12.593-2.798,19.122-2.798s11.926,6.063,11.926,6.063s-15.191,6.53-16.123,15.391c-0.933,8.862,6.063,7.462,7.929,8.395
		c1.865,0.933,4.664,5.13,4.664,8.395s-3.265,5.597-2.332,8.862c0.933,3.265,13.526,5.13,18.19,3.731
		c0,0-5.597,14.925-17.257,15.857c-11.66,0.933-9.794,6.063-9.328,10.261s1.866,32.181-14.458,40.577c0,0,1.866-13.059-2.798-16.324
		s-8.395,6.53-13.526,5.13c-5.13-1.399-6.53-6.53-9.794-12.126c-3.265-5.597-3.265-7.929-7.462-7.929
		c-4.198,0-2.332,13.526-7.462,14.925c-5.13,1.399-7.929-17.257-13.992-17.723c-6.063-0.466-3.265,20.055-8.862,20.055
		c-5.597,0-7.462-17.723-13.526-18.189c-6.063-0.466-0.933,18.189-6.063,18.656c-5.13,0.466-11.66-19.122-20.988-20.055
		s-5.844,7.462-9.685,7.929c-3.84,0.466-8.504-7.462-13.168-7.462c-4.664,0-6.063,10.261-10.261,10.261
		c-4.198,0-25.185-27.051-25.185-33.114s3.265-16.79,4.198-22.853c0.933-6.063,1.399-16.324-1.866-21.454
		c-3.265-5.13-5.13-6.063-9.794-6.063s-13.992,12.593-13.526,21.454c0.466,8.862-3.298,29.849-0.017,37.778
		s5.147,22.387,0.95,30.316c0,0-11.193-40.11-25.652-40.11c-14.458,0-21.454,17.257-37.778,22.854
		c-16.324,5.597-30.782,10.727-32.648,17.257c-1.866,6.53-1.399,13.992,0,16.79s4.664,0.466,6.063,3.731
		c1.399,3.265-4.664,17.723,0.466,21.921c5.13,4.198,12.126-2.332,15.858-3.731c3.731-1.399,17.723-2.798,22.854,2.332
		s0.466,9.794,3.265,13.059s7.462,0.933,7.462,7.929s-10.727,6.996-11.66,10.727c-0.933,3.731,0.466,9.794,2.798,12.126
		c2.332,2.332,1.399,9.794,15.858,10.261c14.458,0.466,98.41,2.798,122.196-3.265s77.422-24.253,87.216-28.917
		c9.794-4.664,28.45-13.992,37.312-14.458c8.861-0.466,30.782,3.265,40.577,4.664s33.581,6.53,43.841,6.996
		c10.261,0.466,23.786,0.933,29.383-2.332c5.597-3.265,0.933-11.194-3.731-16.324s-25.652-26.118-32.648-35.446
		c-6.996-9.328-24.253-36.379-27.517-53.169c-3.265-16.79-6.51-29.849-7.219-42.909S1430.97,540.853,1432.127,531.992z
		 M1276.807,787.578c0,0-64.363,11.893-98.993,11.893c-38.256,0-104.728-9.13-133.623-16.44c-29.033-7.346-56.9-17.023-69.96-18.889
		s-39.796-7.916-40.728,4.211s20.084,26.292,30.934,32.868c11.543,6.996,38.707,16.949,64.013,21.338
		c23.11,4.008,91.997,5.027,133.973,4.897c34.526-0.106,93.593-3.265,118.582-9.794c24.988-6.53,74.157-20.521,79.754-22.387
		s44.895-14.329,43.725-26.921c-1.154-12.416-22.854-11.839-37.778-8.408C1351.78,763.375,1293.467,783.323,1276.807,787.578z
		 M1168.991,855.206c0,0-96.233,0-122.818-4.664c-26.585-4.664-79.861-18.332-94.679-26.351
		c-16.266-8.803-24.661,3.275-23.32,22.853c0.725,10.588,25.244,20.288,48.739,23.553c27.414,3.809,118.232,7.462,133.623,7.929
		c15.391,0.466,50.215,0.466,58.455,0c8.24-0.466,194.799-4.198,218.585-7.929c23.786-3.731,106.478-26.255,117.807-34.838
		c10.948-8.294-1.5-24.865-7.592-31.435c-6.619-7.139-10.873-11.681-28.596-11.681c-17.723,0-46.355,14.524-64.687,20.12
		c-18.332,5.597-48.648,15.391-64.505,20.988c-15.858,5.597-85.351,18.656-94.212,18.656S1178.01,855.236,1168.991,855.206z
		 M1596.289,789.21c5.597-6.763,1.382-16.091-8.395-17.956c-8.479-1.618-20.755-13.434-20.755-13.434s-12.276,11.816-20.755,13.434
		c-9.777,1.866-13.992,11.194-8.395,17.956c5.363,6.48,20.988,5.888,29.15,5.888C1575.301,795.099,1590.926,795.69,1596.289,789.21z
		"/>
</g>
</svg>
