<?xml version="1.0" encoding="utf-8"?>
<!-- Generator: Adobe Illustrator 22.0.1, SVG Export Plug-In . SVG Version: 6.00 Build 0)  -->
<svg version="1.1" id="圖層_1" xmlns="http://www.w3.org/2000/svg" xmlns:xlink="http://www.w3.org/1999/xlink" x="0px" y="0px"
	 viewBox="0 0 11181 4196.7" enable-background="new 0 0 11181 4196.7" xml:space="preserve">
<g>
	<g>
		<line fill="none" stroke="#000000" stroke-width="15" stroke-miterlimit="10" x1="10231.1" y1="3370.9" x2="7500" y2="3370.9"/>
		<line fill="none" stroke="#000000" stroke-width="14" stroke-miterlimit="10" x1="4004.3" y1="3368" x2="880.1" y2="3368"/>
		<g>
			<g>
				<path d="M4733.5,3746.6l-51.3-172.3h-243l-54.5,172.3h-226.1l280.1-874.2h294.4l284.5,874.2H4733.5z M4486.5,3383.5h146.8
					l-73.4-253.6L4486.5,3383.5z"/>
				<path d="M5007.5,3493.7l258.5-44.8c21.7,70.4,77.5,105.7,167.5,105.7c70,0,105-17.9,105-53.8c0-18.8-8.1-33.4-24.3-43.9
					c-16.2-10.5-45.1-19.7-86.7-27.8c-159.1-29.4-261.2-67.8-306.4-115.2c-45.2-47.4-67.8-103.1-67.8-167.2
					c0-82.4,32.5-151,97.4-205.6c64.9-54.7,158.3-82,280.1-82c184.8,0,306.8,71.5,366.2,214.5l-230.6,67.2
					c-23.9-58.5-72.4-87.7-145.6-87.7c-60.7,0-91.1,18.2-91.1,54.4c0,16.2,6.9,28.8,20.6,37.8c13.7,9,40.3,17.5,79.8,25.6
					c108.6,22.1,185.7,41.7,231.3,58.7c45.7,17,83.7,46.1,114.3,87.4s45.8,89.8,45.8,145.8c0,88.4-37.2,160.1-111.7,215
					c-74.4,54.9-172.1,82.3-293.1,82.3C5195.8,3760.1,5059.4,3671.3,5007.5,3493.7z"/>
				<path d="M6206.5,2872.4v874.2H5928v-874.2H6206.5z"/>
				<path d="M6864.9,3746.6l-51.3-172.3h-243l-54.5,172.3h-226.1l280.1-874.2h294.4l284.5,874.2H6864.9z M6618,3383.5h146.8
					l-73.4-253.6L6618,3383.5z"/>
			</g>
		</g>
	</g>
	<g>
		<g>
			<g>
				<path d="M1420.5,1914.2c0,23.1-5.7,41-17.1,53.7c-11.4,12.7-30.9,22.5-58.4,29.4v36.9h502.5v-36.9c-28.3-7.7-48-17.7-59-30
					c-11-12.3-16.5-30-16.5-53.1V578.9c0-23.1,5.5-40.8,16.5-53.1c11-12.3,30.7-22.3,59-30v-36.9H1345v36.9
					c28.3,6.9,48,16.7,59,29.4c11,12.7,16.5,30.6,16.5,53.7v507.8H492.2V578.9c0-23.1,5.5-41,16.5-53.7c11-12.7,30.7-22.5,59-29.4
					v-36.9H65.2v36.9c28.3,7.7,48,17.7,59,30c11,12.3,16.5,30,16.5,53.1v1335.3c0,23.1-5.5,40.8-16.5,53.1c-11,12.3-30.7,22.3-59,30
					v36.9h502.5v-36.9c-27.5-6.9-47-16.7-58.4-29.4c-11.4-12.7-17.1-30.6-17.1-53.7v-567.8h928.3V1914.2z"/>
			</g>
		</g>
		<path d="M3402.5,1632.9h-723l-107.1,215.6c-14.8,30-22.1,53.5-22.1,70.7c0,33,26,55.8,77.9,68.5v35.9H2102v-35.9
			c31.1-6,54.8-16.5,71.1-31.4c16.3-15,35-44.2,55.9-87.6l585-1178c18.6-37.4,28-67.4,28-89.8c0-34.4-22.5-59.1-67.6-74.1v-35.9h564
			v35.9c-45.8,12.7-68.8,34.8-68.8,66.3c0,21.7,7.4,46.4,22.1,74.1l606,1181.3c25.6,50.2,48.2,84.4,67.6,102.8
			c19.4,18.3,45.4,30.5,78.1,36.5v35.9h-585.6v-35.9c51.4-8.2,77.1-31.4,77.1-69.6c0-15.7-7.8-38.9-23.3-69.6L3402.5,1632.9z
			 M3302.6,1422.9l-258-546l-262.1,546H3302.6z"/>
		<path d="M4713.9,1391.4v522.8c0,23.1,5.6,41,16.8,53.7c11.2,12.7,30.3,22.5,57.4,29.4v36.9h-493.9v-36.9c27.8-7.7,47.1-17.7,58-30
			c10.8-12.3,16.2-30,16.2-53.1V580.1c0-23.8-5.4-41.9-16.2-54.2c-10.8-12.3-30.1-22.3-58-30v-36.9h990.2
			c120.6,0,216.2,6.9,287,20.8c70.7,13.8,132.4,38.1,184.9,72.7c61.1,40,106.7,94.3,136.8,162.7c28.6,66.2,42.9,137,42.9,212.4
			c0,257-143.4,407.4-430.1,451.2l307.3,435.1c54.1,76.2,93.7,125.2,118.8,147.2c25.1,21.9,55.8,34,92.2,36.4v36.9h-571.8v-36.9
			c39.4-6.1,59-20,59-41.5c0-13.9-18.1-47.3-54.4-100.4l-320.5-463.9H4713.9z M4713.9,1131.7h533.3c78.8,0,134.5-2.3,167-6.9
			c32.5-4.6,62.2-14.2,89.3-28.8c58.7-31.5,88.1-88.5,88.1-170.8c0-82.3-29.4-139.2-88.1-170.8c-27.8-15.4-57.4-25.2-88.7-29.4
			c-31.3-4.2-87.2-6.4-167.5-6.4h-533.3V1131.7z"/>
		<path d="M6849,1391.4v522.8c0,23.1,5.6,41,16.8,53.7c11.2,12.7,30.3,22.5,57.4,29.4v36.9h-493.9v-36.9c27.8-7.7,47.1-17.7,58-30
			c10.8-12.3,16.2-30,16.2-53.1V580.1c0-23.8-5.4-41.9-16.2-54.2c-10.8-12.3-30.1-22.3-58-30v-36.9h990.1
			c120.6,0,216.2,6.9,286.9,20.8s132.4,38.1,184.9,72.7c61.1,40,106.7,94.3,136.8,162.7c28.6,66.2,42.9,137,42.9,212.4
			c0,257-143.4,407.4-430.1,451.2l307.2,435.1c54.1,76.2,93.7,125.2,118.8,147.2c25.1,21.9,55.8,34,92.2,36.4v36.9h-571.8v-36.9
			c39.3-6.1,59-20,59-41.5c0-13.9-18.1-47.3-54.4-100.4l-320.5-463.9H6849z M6849,1131.7h533.3c78.8,0,134.5-2.3,166.9-6.9
			c32.5-4.6,62.2-14.2,89.3-28.8c58.7-31.5,88.1-88.5,88.1-170.8c0-82.3-29.4-139.2-88.1-170.8c-27.8-15.4-57.4-25.2-88.7-29.4
			c-31.3-4.2-87.1-6.4-167.5-6.4H6849V1131.7z"/>
		<g>
			<g>
				<path d="M8620,1973.4c-11.2,12.2-31.1,22.1-59.9,29.7v36.6h510.2v-36.6c-28-6.9-47.7-16.6-59.3-29.2
					c-11.6-12.6-17.4-30.7-17.4-54.3V597.9c0-22.9,5.6-40.6,16.8-53.2c11.2-12.6,31.1-22.3,59.9-29.2v-36.6h-510.2v36.6
					c28.7,7.6,48.7,17.5,59.9,29.7c11.2,12.2,16.8,29.7,16.8,52.6v1321.8C8636.8,1943.3,8631.2,1961.2,8620,1973.4z"/>
			</g>
		</g>
		<g>
			<g>
				<path d="M11012.5,580.4c-22.4,17.8-41.9,26.7-58.7,26.7c-10.4,0-38.7-8.9-85-26.7c-135-54.9-247.5-92.5-337.8-113
					c-90.2-20.5-187.6-30.7-292.2-30.7c-249.1,0-436,57.4-560.5,172.1c-95,87-142.5,197.1-142.5,330.3c0,80.9,18.8,152.5,56.3,214.8
					c41.5,69.3,98.6,121.3,171.3,155.9c51.1,24.7,102.2,42.6,153.3,53.7c51.1,11.2,138.5,22.9,262.3,35.2l184.4,18.4
					c123.8,13.1,206,27.3,246.7,42.6c58.3,22.3,87.4,59.5,87.4,111.7c0,34.6-12.4,67.8-37.1,99.6c-24.8,31.9-57.9,57.4-99.4,76.6
					c-75.1,34.6-165.7,51.8-271.9,51.8c-97.4,0-200.4-16.2-309-48.5c-108.6-32.3-188.8-70.8-240.7-115.4
					c-34.3-29.2-51.5-61.2-51.5-95.8c0-3.1,0-8.1,0-15l-34.7-16.2l-177.3,386.6l34.7,17.3c22.3-16.9,38.7-25.4,49.1-25.4
					c8.8,0,35.5,10,80.2,30c210.8,100,424.4,150,640.8,150c120.6,0,233.5-14.2,338.9-42.7c141.3-37.7,245.5-95.7,312.6-174.1
					c74.3-86.1,111.4-184.5,111.4-295.2c0-70-15.8-135.7-47.3-197.2c-31.6-61.5-74.5-111.1-128.8-148.8
					c-53.5-36.1-114.8-64.2-183.8-84.2c-69.1-20-159.5-35.7-271.3-47.3l-188-18.4c-126.2-12.3-208.4-23.8-246.7-34.6
					c-74.3-21.5-111.4-61.9-111.4-121.1c0-36.1,14.6-69.5,43.7-100.3c29.1-30.7,67.3-53.8,114.4-69.2c64.7-20,139.3-30,224-30
					c191.6,0,358.5,47.7,500.6,143.1c46.3,30,69.5,58.1,69.5,84.2c0,4.6-0.4,10.8-1.2,18.5l33.5,18.5l195.2-370.9L11012.5,580.4z"/>
			</g>
		</g>
	</g>
</g>
</svg>
