<?xml version="1.0" encoding="utf-8"?>
<!-- Generator: Adobe Illustrator 22.0.1, SVG Export Plug-In . SVG Version: 6.00 Build 0)  -->
<svg version="1.1" id="圖層_1" xmlns="http://www.w3.org/2000/svg" xmlns:xlink="http://www.w3.org/1999/xlink" x="0px" y="0px"
	 viewBox="0 0 3269.963 2738.656" enable-background="new 0 0 3269.963 2738.656" xml:space="preserve">
<g>
	<g>
		<g>
			<rect x="2057.069" y="2081.176" fill="#FFFFFF" width="588.511" height="15"/>
			<rect x="630.623" y="2081.046" fill="#FFFFFF" width="673.196" height="14"/>
			<g>
				<g>
					<path fill="#FFFFFF" d="M1460.944,2169.632l-11.049-37.122h-52.369l-11.737,37.122h-48.716l60.35-188.372h63.444
						l61.311,188.372H1460.944z M1407.728,2091.385h31.628l-15.816-54.644L1407.728,2091.385z"/>
					<path fill="#FFFFFF" d="M1519.996,2115.122l55.71-9.66c4.677,15.18,16.707,22.77,36.091,22.77
						c15.084,0,22.627-3.865,22.627-11.593c0-4.047-1.743-7.198-5.227-9.453c-3.487-2.253-9.716-4.251-18.692-5.996
						c-34.281-6.331-56.289-14.602-66.025-24.819c-9.735-10.215-14.603-22.225-14.603-36.03c0-17.759,6.993-32.529,20.98-44.309
						c13.986-11.78,34.108-17.671,60.365-17.671c39.814,0,66.116,15.411,78.912,46.23l-49.695,14.491
						c-5.156-12.604-15.61-18.906-31.365-18.906c-13.081,0-19.62,3.911-19.62,11.73c0,3.497,1.479,6.21,4.439,8.142
						c2.959,1.932,8.689,3.769,17.188,5.512c23.396,4.767,40.011,8.985,49.848,12.651c9.837,3.668,18.045,9.943,24.629,18.826
						c6.583,8.884,9.874,19.357,9.874,31.417c0,19.057-8.02,34.502-24.06,46.332c-16.04,11.83-37.092,17.744-63.157,17.744
						C1560.572,2172.53,1531.166,2153.395,1519.996,2115.122z"/>
					<path fill="#FFFFFF" d="M1778.355,1981.26v188.372h-60.007V1981.26H1778.355z"/>
					<path fill="#FFFFFF" d="M1920.234,2169.632l-11.049-37.122h-52.369l-11.737,37.122h-48.716l60.35-188.372h63.444
						l61.311,188.372H1920.234z M1867.018,2091.385h31.628l-15.816-54.644L1867.018,2091.385z"/>
				</g>
			</g>
		</g>
		<g>
			<g>
				<g>
					<path fill="#FFFFFF" d="M747.069,1774.777c0,4.974-1.231,8.828-3.686,11.564c-2.459,2.736-6.652,4.85-12.581,6.341v7.958
						h108.28v-7.958c-6.099-1.656-10.338-3.811-12.709-6.466c-2.375-2.651-3.558-6.465-3.558-11.44v-287.727
						c0-4.974,1.183-8.785,3.558-11.44c2.371-2.649,6.61-4.806,12.709-6.465v-7.958h-108.28v7.958
						c6.1,1.491,10.333,3.606,12.709,6.341c2.37,2.736,3.558,6.59,3.558,11.564v109.421h-200.04v-109.421
						c0-4.974,1.183-8.828,3.558-11.564c2.371-2.736,6.61-4.85,12.709-6.341v-7.958h-108.28v7.958
						c6.1,1.659,10.333,3.816,12.709,6.465c2.37,2.654,3.558,6.466,3.558,11.44v287.727c0,4.974-1.188,8.789-3.558,11.44
						c-2.376,2.654-6.61,4.81-12.709,6.466v7.958h108.28v-7.958c-5.933-1.491-10.128-3.606-12.581-6.341
						c-2.459-2.736-3.686-6.59-3.686-11.564v-122.353h200.04V1774.777z"/>
				</g>
			</g>
			<path fill="#FFFFFF" d="M1174.139,1714.16h-155.787l-23.071,46.458c-3.182,6.454-4.771,11.536-4.771,15.245
				c0,7.101,5.594,12.019,16.788,14.761v7.742H893.922v-7.742c6.694-1.29,11.802-3.547,15.317-6.775
				c3.515-3.226,7.533-9.517,12.054-18.874l126.058-253.826c4.018-8.063,6.027-14.518,6.027-19.358
				c0-7.417-4.858-12.74-14.564-15.969v-7.744h121.537v7.744c-9.879,2.745-14.816,7.501-14.816,14.276
				c0,4.681,1.589,10.003,4.771,15.97l130.578,254.55c5.524,10.809,10.378,18.19,14.565,22.141
				c4.182,3.954,9.793,6.574,16.825,7.864v7.742H1186.09v-7.742c11.08-1.773,16.624-6.775,16.624-15.003
				c0-3.387-1.676-8.385-5.022-15.003L1174.139,1714.16z M1152.609,1668.911l-55.585-117.653l-56.481,117.653H1152.609z"/>
			<path fill="#FFFFFF" d="M1456.729,1662.123v112.654c0,4.974,1.206,8.828,3.623,11.564c2.412,2.736,6.534,4.85,12.366,6.341v7.958
				h-106.431v-7.958c5.997-1.656,10.158-3.811,12.492-6.466c2.331-2.651,3.498-6.465,3.498-11.44v-287.479
				c0-5.136-1.167-9.033-3.498-11.688c-2.335-2.649-6.496-4.806-12.492-6.465v-7.958h213.361c25.984,0,46.596,1.493,61.835,4.477
				c15.241,2.984,28.52,8.206,39.849,15.667c13.155,8.622,22.984,20.31,29.48,35.065c6.161,14.261,9.244,29.511,9.244,45.758
				c0,55.375-30.897,87.785-92.689,97.234l66.206,93.754c11.656,16.414,20.194,26.982,25.609,31.708
				c5.41,4.725,12.031,7.335,19.861,7.833v7.958h-123.213v-7.958c8.479-1.325,12.723-4.309,12.723-8.952
				c0-2.985-3.908-10.196-11.723-21.636l-69.069-99.971H1456.729z M1456.729,1606.169h114.925c16.989,0,28.981-0.498,35.977-1.493
				c6.996-0.994,13.405-3.065,19.237-6.216c12.655-6.796,18.988-19.063,18.988-36.805c0-17.738-6.333-30.005-18.988-36.805
				c-5.997-3.315-12.367-5.429-19.113-6.341c-6.745-0.91-18.78-1.369-36.101-1.369h-114.925V1606.169z"/>
			<path fill="#FFFFFF" d="M1916.799,1662.123v112.654c0,4.974,1.206,8.828,3.622,11.564c2.412,2.736,6.534,4.85,12.366,6.341v7.958
				h-106.422v-7.958c5.995-1.656,10.156-3.811,12.49-6.466c2.331-2.651,3.498-6.465,3.498-11.44v-287.479
				c0-5.136-1.167-9.033-3.498-11.688c-2.334-2.649-6.494-4.806-12.49-6.465v-7.958h213.345c25.981,0,46.591,1.493,61.83,4.477
				c15.239,2.984,28.519,8.206,39.845,15.667c13.155,8.622,22.983,20.31,29.479,35.065c6.16,14.261,9.244,29.511,9.244,45.758
				c0,55.375-30.896,87.785-92.684,97.234l66.203,93.754c11.655,16.414,20.192,26.982,25.606,31.708
				c5.41,4.725,12.03,7.335,19.86,7.833v7.958h-123.203v-7.958c8.478-1.325,12.72-4.309,12.72-8.952
				c0-2.985-3.906-10.196-11.722-21.636l-69.064-99.971H1916.799z M1916.799,1606.169h114.916c16.988,0,28.979-0.498,35.974-1.493
				c6.994-0.994,13.404-3.065,19.236-6.216c12.654-6.796,18.986-19.063,18.986-36.805c0-17.738-6.332-30.005-18.986-36.805
				c-5.995-3.315-12.366-5.429-19.112-6.341c-6.745-0.91-18.779-1.369-36.099-1.369h-114.916V1606.169z"/>
			<g>
				<g>
					<path fill="#FFFFFF" d="M2298.423,1787.53c-2.411,2.629-6.71,4.765-12.905,6.405v7.884h109.943v-7.884
						c-6.026-1.479-10.283-3.573-12.776-6.282c-2.497-2.711-3.742-6.61-3.742-11.703v-284.817c0-4.928,1.202-8.746,3.613-11.457
						c2.407-2.709,6.71-4.804,12.905-6.282v-7.884h-109.943v7.884c6.195,1.644,10.493,3.781,12.905,6.407
						c2.407,2.629,3.613,6.405,3.613,11.333v284.817C2302.036,1781.043,2300.83,1784.904,2298.423,1787.53z"/>
				</g>
			</g>
			<g>
				<g>
					<path fill="#FFFFFF" d="M2813.96,1487.366c-4.819,3.831-9.032,5.746-12.645,5.746c-2.238,0-8.348-1.915-18.324-5.746
						c-29.079-11.821-53.338-19.934-72.778-24.348c-19.445-4.414-40.435-6.621-62.972-6.621c-53.681,0-93.942,12.363-120.782,37.085
						c-20.477,18.752-30.711,42.479-30.711,71.178c0,17.424,4.041,32.858,12.129,46.294c8.945,14.938,21.248,26.135,36.906,33.599
						c11.01,5.313,22.022,9.171,33.034,11.576c11.01,2.405,29.85,4.934,56.52,7.588l39.744,3.972
						c26.668,2.812,44.39,5.875,53.165,9.181c12.558,4.802,18.84,12.827,18.84,24.076c0,7.449-2.669,14.607-8.001,21.472
						c-5.335,6.87-12.476,12.372-21.42,16.506c-16.174,7.446-35.704,11.168-58.584,11.168c-20.993,0-43.188-3.482-66.585-10.445
						c-23.401-6.963-40.693-15.252-51.874-24.868c-7.401-6.299-11.098-13.18-11.098-20.641c0-0.661,0-1.741,0-3.233l-7.484-3.482
						l-38.196,83.309l7.484,3.73c4.815-3.644,8.344-5.47,10.581-5.47c1.891,0,7.654,2.157,17.292,6.465
						c45.421,21.555,91.444,32.329,138.073,32.329c25.977,0,50.325-3.065,73.037-9.193c30.454-8.117,52.907-20.626,67.359-37.525
						c16.001-18.55,24.001-39.754,24.001-63.612c0-15.077-3.399-29.241-10.194-42.494c-6.799-13.251-16.045-23.937-27.743-32.053
						c-11.529-7.788-24.735-13.833-39.615-18.143c-14.885-4.305-34.37-7.701-58.456-10.188l-40.519-3.975
						c-27.187-2.651-44.905-5.133-53.164-7.453c-16.001-4.636-24.002-13.332-24.002-26.085c0-7.783,3.138-14.986,9.421-21.612
						c6.279-6.621,14.492-11.59,24.646-14.905c13.936-4.305,30.023-6.458,48.261-6.458c41.293,0,77.251,10.282,107.878,30.837
						c9.976,6.466,14.969,12.519,14.969,18.153c0,0.995-0.089,2.323-0.258,3.979l7.226,3.979l42.066-79.924L2813.96,1487.366z"/>
				</g>
			</g>
		</g>
	</g>
	<path fill="#FFFFFF" d="M1638.101,2711.409c-218.701,0-430.918-24.567-630.757-73.019
		c-193.455-46.904-367.337-114.131-516.814-199.815c-73.966-42.399-141.177-89.103-199.767-138.815
		c-59.449-50.442-110.573-104.452-151.952-160.53c-42.43-57.503-75.054-117.785-96.968-179.172
		c-22.607-63.329-34.07-128.552-34.07-193.86s11.463-130.531,34.07-193.86c21.914-61.387,54.538-121.668,96.968-179.171
		c41.379-56.078,92.503-110.088,151.952-160.53c58.59-49.712,125.801-96.416,199.767-138.815
		c149.478-85.684,323.359-152.912,516.814-199.815c199.839-48.452,412.057-73.019,630.757-73.019
		c218.7,0,430.918,24.567,630.757,73.019c193.455,46.904,367.336,114.131,516.814,199.815
		c73.965,42.399,141.177,89.103,199.767,138.815c59.449,50.442,110.573,104.452,151.952,160.53
		c42.429,57.503,75.054,117.785,96.968,179.171c22.607,63.329,34.07,128.552,34.07,193.86s-11.463,130.531-34.07,193.86
		c-21.914,61.387-54.539,121.669-96.968,179.172c-41.379,56.078-92.503,110.088-151.952,160.53
		c-58.59,49.712-125.801,96.417-199.767,138.815c-149.478,85.684-323.36,152.912-516.814,199.815
		C2069.019,2686.842,1856.801,2711.409,1638.101,2711.409z M1638.101,870.988c-424.506,0-823.224,94.543-1122.707,266.213
		C220.292,1306.36,57.772,1529.743,57.772,1766.199s162.52,459.839,457.623,628.998
		c299.482,171.67,698.201,266.213,1122.707,266.213s823.224-94.543,1122.706-266.213
		c295.103-169.159,457.623-392.542,457.623-628.998s-162.52-459.839-457.623-628.998
		C2461.325,965.531,2062.607,870.988,1638.101,870.988z"/>
	<path fill="#FFFFFF" d="M1638.101,848.848c0,0-610.455,1.478-638.774,0c-28.319-1.477-55.406-25.364-61.563-32.259
		s-8.865-18.961-8.619-30.289s5.418-23.148,8.372-27.334c2.955-4.186,10.589-11.328,10.589-16.006s-5.171-9.357-9.85-15.021
		c-4.679-5.664-7.634-18.223-7.141-27.334c0.492-9.111,5.171-15.76,19.7-24.871c14.529-9.111,56.391-4.186,65.995-3.201
		c9.604,0.985,37.184,11.328,49.989,16.006c12.805,4.679,17.73,2.709,18.715-3.201c0.985-5.91-8.496-10.589-8.496-10.589
		c4.802,0.369,11.82-15.144,1.478-10.343s-25.856-5.171-15.883-9.604s5.171-16.622,5.171-16.622c-9.604,0-9.234-6.279-9.234-6.279
		c3.694-2.216,11.081-11.82,3.694-12.559c-7.387-0.739-8.865-8.496-8.865-8.496s3.694,3.324,9.973,2.955
		c6.279-0.369,4.432-13.667-0.369-15.883s-10.712-14.406-10.712-14.406c9.604,4.432,15.883-5.91,15.883-5.91
		c-2.955-5.171,4.802-11.081,4.802-11.081c14.775,4.063,34.721-18.592,39.646-24.009c4.925-5.417-1.478-6.895-1.478-6.895
		c-15.267,4.432-36.445,2.955-56.638-6.403c-20.193-9.357-27.088-45.803-27.088-64.025s17.238-48.511,18.469-55.406
		s3.201-5.418-2.216-11.574c-5.417-6.156-2.462-12.066-2.462-12.066c2.709,3.201,10.343,4.925,11.328-3.201
		c0.985-8.126-5.418-10.835-6.403-28.565c-0.985-17.73,9.603-29.796,9.603-29.796c4.555,14.406,14.284,11.081,14.284,11.081
		c0.739-24.379-8.865-29.55-12.189-42.478c-3.324-12.928,9.604-22.901,9.604-22.901c-3.694,25.856,17.73,28.073,17.73,28.073
		c-3.694-6.649,1.478-21.054,1.478-21.054c2.586,7.018,20.316,21.054,24.748,22.532c4.432,1.478,6.279-5.171,6.279-14.036
		c0-8.865-11.451-24.379-17.73-32.505s-8.496-33.983-9.973-50.974s7.757-34.352,9.973-43.586
		c2.216-9.234,32.136-32.874,37.676-43.956s6.279-36.199,6.279-36.199c7.757,4.802,7.757,21.424,8.126,31.766
		s9.234,23.64,14.775,29.55c5.541,5.91,19.852,23.201,18.083,40.313c-1.509,14.596-0.229,29.992,1.618,38.488
		c1.726,7.941,4.679,18.346,11.328,25.733c6.649,7.388,14.775,20.685,13.297,43.586c-1.477,22.901-24.009,26.226-24.009,26.226
		c2.955-3.324,13.298-9.973,14.036-27.334c0.739-17.361-43.217-37.307-46.911-41.37c-3.694-4.063,0.739-10.712-0.739-16.622
		c-1.478-5.91-12.189-11.451-15.144-15.144c-2.955-3.694-1.847-14.96-1.847-14.96s5.171,4.987,10.712,4.987
		s10.712-2.216,10.712-16.253s-11.081-27.703-24.379-27.703s-20.316,21.424-21.424,38.784
		c-1.108,17.361,15.883,53.929,25.118,69.073s14.775,45.803,12.559,58.731c-2.216,12.928-31.028,48.758-42.109,58.361
		c-11.081,9.604-41.739,44.694-49.496,62.794c-7.757,18.099,4.432,43.586,14.036,53.19c9.604,9.604,42.478,9.234,46.541-6.649
		s49.127-71.29,60.947-85.326c11.82-14.036,59.839-84.218,58.731-88.281c-1.108-4.063-11.081-4.802-12.189-9.973
		c-1.108-5.171,5.541-7.757,12.189-9.604c6.649-1.847,14.406-11.081,12.559-21.424c-1.847-10.343-15.514-6.649-16.991-10.343
		s-0.369-5.541,7.387-11.081c7.757-5.541,8.496-17.361,5.91-22.532c-2.586-5.171-15.883,1.847-22.901,5.171
		c-7.018,3.324-13.667-4.063-7.018-5.91c6.649-1.847,12.559-11.081,15.144-17.361c2.586-6.279,1.478-11.451-3.694-16.253
		s-4.802-1.478-4.802-12.189c0-10.712-8.496-14.406-8.496-4.063s-10.347,11.656-11.747,2.126c-1.181-8.036-3.16-12.513-4.136-19.856
		c-1.315-9.896-0.571-21.062-2.586-25.302c-3.509-7.388-18.099-4.802-18.284-10.527c-0.185-5.725,9.234-9.419,8.865-14.96
		c-0.369-5.541-9.05-7.018-12.743-13.113c-3.694-6.095,7.203-10.712,10.343-12.928c3.14-2.216,7.942-15.514-1.478-15.698
		c-9.419-0.185-8.865-8.496-4.987-9.604c3.878-1.108,14.406-13.298,15.514-19.392s-1.662-13.667,7.203-11.081
		c8.865,2.586,21.793,3.694,25.856-15.144s18.099-10.712,18.099-2.216s19.577,18.838,21.054,10.343
		c1.478-8.496,8.126-5.91,8.126-4.677c0,1.233,7.143,14.381,12.683,6.255s12.59-6.822,12.619-0.285
		c0.03,6.766-6.464,17.915-3.879,24.009c3.043,7.173,14.406,13.113,17.73,7.203s6.649-5.541,8.865-1.478
		c2.216,4.063,9.973,4.433,14.406-1.478s9.234-0.739,7.018,4.063c-1.864,4.038-3.324,15.883-2.955,21.793
		s11.081,26.595,25.118,26.226s14.775,8.865,13.298,12.928c-1.478,4.063-7.018,9.234-14.775,13.667
		c-7.757,4.433-14.775-1.108-26.595-8.496c-11.82-7.388-22.532-4.433-23.271,8.126c-0.739,12.559,20.685,14.775,22.532,12.928
		s7.757-8.126,12.559-2.216c4.802,5.91,17.361,7.388,23.64,8.496s11.451-2.955,15.144-11.081s9.234-7.757,12.559-4.433
		c3.324,3.324,2.955,8.126-1.847,21.054s-28.811,13.298-39.523,3.324c-10.712-9.973-19.762-7.018-22.532,4.432
		c-1.905,7.874-11.943,4.073-16.622,0.369c-4.432-3.509-14.96-12.189-16.991-9.419c-3.412,4.653-0.934,13.907,4.617,18.099
		c10.551,7.968,34.323,13.996,34.537,19.762c0.185,4.987-8.457,8.352-9.234,10.897c-1.402,4.592,0.739,9.788,2.586,11.635
		c1.847,1.847,9.234,1.847,14.775-7.388s14.96-3.694,21.239,0.739c6.279,4.432,16.991,4.248,20.316,0
		c2.95-3.769,4.055-10.673,3.16-15.33c-0.596-3.1-3.345-16.067,1.088-12.742c4.432,3.324,15.144,16.622,17.73,28.442
		c2.586,11.82-5.541,20.316-11.82,24.379c-6.279,4.063-2.586,13.667-1.847,17.361c0.739,3.694,18.469,23.404,33.059,17.915
		c18.653-7.018,63.445-5.54,70.735-4.987c6.358,0.483,12.928-1.724,15.144-15.514c3.174-19.748-16.991-43.217-29.55-65.749
		c-12.559-22.532-14.427-36.273,20.685-54.421c43.833-22.655,127.065-24.994,127.065-24.994s83.233,2.339,127.065,24.994
		c35.112,18.148,33.244,31.889,20.685,54.421c-12.559,22.532-32.724,46.001-29.55,65.749c2.216,13.79,8.786,15.997,15.144,15.514
		c7.29-0.554,52.082-2.032,70.735,4.987c14.59,5.489,32.32-14.221,33.059-17.915c0.739-3.694,4.432-13.298-1.847-17.361
		c-6.279-4.063-14.406-12.559-11.82-24.379c2.586-11.82,13.297-25.118,17.73-28.442c4.432-3.324,1.683,9.642,1.088,12.742
		c-0.895,4.657,0.21,11.561,3.16,15.33c3.324,4.248,14.036,4.432,20.316,0c6.279-4.433,15.698-9.973,21.239-0.739
		s12.928,9.234,14.775,7.388s3.988-7.043,2.586-11.635c-0.777-2.545-9.419-5.91-9.234-10.897
		c0.214-5.766,23.985-11.794,34.537-19.762c5.552-4.192,8.029-13.447,4.617-18.099c-2.031-2.77-12.559,5.91-16.991,9.419
		c-4.679,3.704-14.717,7.505-16.622-0.369c-2.77-11.451-11.82-14.406-22.532-4.432s-34.721,9.604-39.523-3.324
		s-5.171-17.73-1.847-21.054c3.324-3.324,8.865-3.694,12.559,4.433c3.694,8.126,8.865,12.189,15.144,11.081
		c6.279-1.108,18.838-2.586,23.64-8.496c4.802-5.91,10.712,0.369,12.559,2.216c1.847,1.847,23.271-0.369,22.532-12.928
		s-11.451-15.514-23.271-8.126c-11.82,7.388-18.838,12.928-26.595,8.496c-7.757-4.433-13.298-9.604-14.775-13.667
		c-1.478-4.063-0.739-13.298,13.297-12.928s24.748-20.316,25.118-26.226s-1.091-17.755-2.955-21.793
		c-2.216-4.802,2.586-9.973,7.018-4.063s12.189,5.541,14.406,1.478c2.216-4.063,5.541-4.433,8.865,1.478
		c3.324,5.91,14.687-0.03,17.73-7.203c2.586-6.095-3.908-17.244-3.878-24.009c0.029-6.537,7.078-7.841,12.619,0.285
		s12.684-5.023,12.684-6.255c0-1.233,6.649-3.818,8.126,4.677s21.054-1.847,21.054-10.343s14.036-16.622,18.099,2.216
		c4.063,18.838,16.991,17.73,25.856,15.144c8.865-2.586,6.095,4.987,7.203,11.081s11.635,18.284,15.514,19.392
		c3.878,1.108,4.433,9.419-4.987,9.604c-9.419,0.185-4.617,13.482-1.478,15.698s14.036,6.833,10.343,12.928
		c-3.694,6.095-12.374,7.572-12.743,13.113c-0.369,5.541,9.05,9.234,8.865,14.96c-0.185,5.725-14.775,3.14-18.284,10.527
		c-2.014,4.241-1.271,15.406-2.585,25.302c-0.976,7.344-2.955,11.82-4.136,19.856c-1.4,9.53-11.747,8.216-11.747-2.126
		s-8.496-6.649-8.496,4.063c0,10.712,0.369,7.388-4.802,12.189s-6.279,9.973-3.694,16.253c2.586,6.279,8.496,15.514,15.145,17.361
		c6.649,1.847,0,9.234-7.018,5.91c-7.018-3.324-20.316-10.343-22.901-5.171c-2.586,5.171-1.847,16.991,5.91,22.532
		c7.757,5.541,8.865,7.388,7.387,11.081c-1.477,3.694-15.144,0-16.991,10.343c-1.847,10.342,5.91,19.577,12.559,21.424
		c6.649,1.847,13.297,4.433,12.189,9.604c-1.108,5.171-11.081,5.91-12.189,9.973c-1.108,4.063,46.911,74.245,58.731,88.281
		c11.82,14.036,56.884,69.443,60.947,85.326c4.063,15.883,36.938,16.253,46.541,6.649c9.604-9.604,21.793-35.091,14.036-53.19
		c-7.757-18.099-38.415-53.19-49.496-62.794c-11.081-9.604-39.893-45.433-42.109-58.361c-2.216-12.928,3.324-43.586,12.559-58.731
		c9.235-15.144,26.226-51.713,25.118-69.073s-8.126-38.784-21.424-38.784s-24.379,13.667-24.379,27.703s5.171,16.253,10.712,16.253
		c5.541,0,10.712-4.987,10.712-4.987s1.108,11.266-1.847,14.96c-2.955,3.694-13.667,9.234-15.145,15.144
		c-1.478,5.91,2.955,12.559-0.739,16.622c-3.694,4.063-47.649,24.009-46.911,41.37s11.081,24.009,14.036,27.334
		c0,0-22.532-3.324-24.009-26.226c-1.478-22.901,6.649-36.199,13.298-43.586c6.649-7.388,9.601-17.792,11.327-25.733
		c1.847-8.496,3.127-23.892,1.617-38.488c-1.769-17.112,12.542-34.402,18.083-40.313c5.541-5.91,14.406-19.208,14.775-29.55
		s0.369-26.964,8.126-31.766c0,0,0.739,25.118,6.28,36.199c5.541,11.081,35.46,34.721,37.676,43.956s11.451,26.595,9.973,43.586
		s-3.694,42.848-9.973,50.974c-6.28,8.126-17.73,23.64-17.73,32.505c0,8.865,1.847,15.514,6.279,14.036
		c4.432-1.478,22.163-15.514,24.748-22.532c0,0,5.171,14.406,1.478,21.054c0,0,21.424-2.216,17.73-28.073
		c0,0,12.928,9.973,9.604,22.901c-3.324,12.928-12.928,18.099-12.189,42.478c0,0,9.729,3.324,14.283-11.081
		c0,0,10.588,12.066,9.603,29.796c-0.985,17.73-7.387,20.439-6.403,28.565c0.985,8.126,8.619,6.403,11.328,3.201
		c0,0,2.955,5.91-2.463,12.066c-5.417,6.156-3.448,4.679-2.216,11.574c1.231,6.895,18.469,37.184,18.469,55.406
		s-6.895,54.668-27.088,64.025c-20.192,9.358-41.37,10.835-56.637,6.403c0,0-6.403,1.478-1.478,6.895
		c4.925,5.418,24.871,28.073,39.646,24.009c0,0,7.757,5.91,4.802,11.081c0,0,6.279,10.343,15.883,5.91
		c0,0-5.91,12.189-10.712,14.406c-4.802,2.216-6.649,15.514-0.369,15.883c6.279,0.369,9.973-2.955,9.973-2.955
		s-1.478,7.757-8.865,8.496s0,10.343,3.694,12.559c0,0,0.369,6.279-9.234,6.279c0,0-4.802,12.189,5.171,16.622
		s-5.541,14.406-15.883,9.604s-3.324,10.712,1.477,10.343c0,0-9.48,4.679-8.496,10.589c0.985,5.91,5.91,7.88,18.715,3.201
		c12.805-4.679,40.385-15.021,49.989-16.006c9.604-0.985,51.467-5.91,65.995,3.201c14.529,9.111,19.208,15.76,19.7,24.871
		c0.492,9.111-2.463,21.67-7.141,27.334c-4.679,5.664-9.85,10.343-9.85,15.021s7.634,11.82,10.589,16.006s8.126,16.006,8.373,27.334
		s-2.463,23.394-8.619,30.289s-33.244,30.781-61.563,32.259C2248.556,850.326,1638.101,848.848,1638.101,848.848z M1827.96,389.222
		l9.973-12.189c0,0,5.91-11.081,2.955-16.622c-2.955-5.541-5.541-5.171-12.928-4.063c-7.387,1.108-11.82,3.46-12.559-0.671
		s5.541-6.347,7.388-8.194c1.847-1.847,2.955-3.694,2.216-7.018c-0.739-3.324-4.432-7.757-8.126-8.126
		c-3.694-0.369-7.018,0-7.018-4.802s9.234-4.802,9.234-10.343c0-5.541-9.234-7.388-12.189-6.649
		c-2.955,0.739-5.171,9.604-10.712,9.973c-5.541,0.369-5.171-8.806-10.343-10.128c-5.171-1.322-8.496,6.065-13.667,4.588
		s-4.432-12.189-10.712-12.559s-7.018,1.108-10.343,4.802s-5.91,13.298-1.847,18.838c4.063,5.541,14.775,33.983,16.253,39.523
		c1.478,5.541,4.802,16.253,9.973,16.253s13.297-3.324,16.991,2.216c3.694,5.541,2.586,19.208,5.171,21.793
		c2.586,2.586,5.91,7.388,11.82,2.586S1824.718,393.184,1827.96,389.222z M1794.46,517.888c-0.749,13.79-4.176,27.58-7.624,45.31
		s-21.67,46.295-29.057,56.145c-7.388,9.85-29.55,32.013-34.475,37.43c-4.925,5.418-9.85,13.79-3.94,17.238
		c5.91,3.448,20.193,2.955,31.028,2.463c10.835-0.492,35.953-5.91,46.295-7.388c10.343-1.478,33.49-5.418,42.848-4.925
		c9.358,0.493,29.057,10.343,39.4,15.268c10.343,4.925,66.98,24.133,92.098,30.535s113.768,3.94,129.035,3.448
		s14.282-8.372,16.745-10.835c2.462-2.463,3.94-8.865,2.955-12.805c-0.985-3.94-12.313-3.94-12.313-11.328s4.925-4.925,7.88-8.372
		s-1.97-8.372,3.448-13.79c5.417-5.417,20.192-3.94,24.133-2.462c3.94,1.477,11.327,8.372,16.745,3.94
		c5.418-4.433-0.985-19.7,0.493-23.148s4.925-0.985,6.402-3.94c1.478-2.955,1.97-10.835,0-17.73
		c-1.97-6.895-17.238-12.313-34.475-18.223c-17.238-5.91-24.625-24.133-39.893-24.133c-15.268,0-27.088,42.355-27.088,42.355
		c-4.433-8.372-2.463-23.64,1.003-32.013c3.465-8.373-0.51-30.535-0.018-39.893c0.493-9.358-9.357-22.655-14.282-22.655
		c-4.925,0-6.895,0.985-10.342,6.403c-3.448,5.418-2.955,16.253-1.97,22.655c0.985,6.403,4.432,17.73,4.432,24.133
		s-22.162,34.968-26.595,34.968s-5.91-10.835-10.835-10.835c-4.925,0-9.85,8.372-13.905,7.88c-4.056-0.492-0.377-9.358-10.227-8.373
		c-9.85,0.985-16.745,21.67-22.162,21.178s0-20.193-6.402-19.7c-6.403,0.492-8.373,19.208-14.283,19.208s-2.955-21.67-9.358-21.178
		c-6.402,0.492-9.358,20.193-14.775,18.715c-5.417-1.478-3.448-15.76-7.88-15.76s-4.432,2.463-7.88,8.372
		c-3.448,5.91-4.925,11.328-10.343,12.805s-9.358-8.865-14.282-5.417c-4.925,3.447-2.955,17.237-2.955,17.237
		c-17.238-8.865-15.76-38.415-15.267-42.848c0.492-4.432,2.463-9.85-9.85-10.835c-12.313-0.985-18.223-16.745-18.223-16.745
		c4.925,1.477,18.223-0.492,19.208-3.94c0.985-3.448-2.462-5.91-2.462-9.358s2.955-7.88,4.925-8.865
		c1.97-0.985,9.358,0.492,8.373-8.865c-0.985-9.357-17.026-16.253-17.026-16.253s5.698-6.403,12.593-6.403
		s13.297,0.493,20.193,2.955s15.268,11.82,20.685,16.253c5.417,4.433,7.387,20.193,9.358,24.133c1.97,3.94,9.85,4.432,13.297,2.51
		c3.448-1.922,11.82-5.958,18.715-4.48c6.895,1.477,10.835,4.925,15.76,4.432c4.925-0.492,10.343-2.955,11.328-7.388
		c0.985-4.433-3.94-10.835-6.403-15.76c-2.462-4.925-10.835-23.64-14.282-31.028s-2.955-21.67-0.985-35.46
		c1.97-13.79,21.177-25.118,35.953-26.103c14.775-0.985,15.268,2.955,22.655,7.388c7.388,4.432,17.238,11.82,29.058,14.283
		c11.82,2.462,14.282-2.463,18.223-5.418c3.94-2.955,4.925-11.328,2.955-19.208c-1.97-7.88-12.805-15.76-17.73-20.193
		c-4.925-4.432-21.67-7.88-30.043-10.343c-8.372-2.462-22.162,3.94-26.103,7.344c-3.94,3.404-14.775,6.447-22.162,3.984
		c-7.388-2.463-14.283-8.373-18.223-15.268c-3.94-6.895-11.328-16.745-16.253-16.253c-4.925,0.493-5.417,3.448-5.417,9.358
		c0,5.91-3.448,14.283-6.895,15.268c-3.448,0.985-6.403-4.433-12.805-3.448s-6.895,11.328-10.343,14.775s-8.865-4.432-13.297,0
		c-4.432,4.433,1.97,14.775-2.955,19.208c-4.925,4.432-13.297-3.94-19.208,0c-5.91,3.94-2.955,11.82-7.668,14.775
		c-4.713,2.955-8.584-1.97-13.509,1.97c-4.925,3.94-1.97,13.79-8.865,15.76c-6.895,1.97-3.94-2.955-8.373-5.91
		c-4.432-2.955-16.509,0-16.509,0C1795.681,474.055,1795.209,504.098,1794.46,517.888z M1849.753,705.408
		c-15.76-3.623-38.674-4.232-39.893,8.879c-1.235,13.298,40.262,26.458,46.172,28.428c5.91,1.97,57.831,16.745,84.218,23.64
		c26.387,6.895,88.76,10.23,125.218,10.343c44.325,0.137,117.068-0.939,141.471-5.171c26.722-4.634,55.406-15.144,67.596-22.532
		c11.458-6.944,33.65-21.903,32.665-34.708c-0.985-12.805-29.218-6.416-43.008-4.446c-13.79,1.97-43.217,12.189-73.875,19.946
		c-30.512,7.72-100.704,17.361-141.101,17.361c-36.568,0-104.533-12.559-104.533-12.559
		C1927.09,730.095,1865.513,709.031,1849.753,705.408z M1977.434,803.046c-9.358,0-82.74-13.79-99.485-19.7
		c-16.745-5.91-48.758-16.253-68.115-22.163c-19.358-5.91-49.593-21.246-68.307-21.246c-18.715,0-23.207,4.797-30.196,12.335
		c-6.432,6.938-19.577,24.436-8.017,33.194c11.963,9.063,99.283,32.847,124.4,36.787s222.118,7.88,230.819,8.372
		c8.701,0.492,45.474,0.492,61.727,0c16.252-0.492,112.153-4.35,141.102-8.372c24.81-3.448,50.7-13.69,51.466-24.871
		c1.416-20.674-7.449-33.429-24.625-24.133c-15.646,8.468-71.905,22.901-99.978,27.826s-129.692,4.925-129.692,4.925
		C2049.009,806.033,1986.792,803.046,1977.434,803.046z M1478.32,408.429c5.91,4.802,9.234,0,11.82-2.586
		c2.586-2.586,1.478-16.253,5.171-21.793c3.694-5.541,11.82-2.216,16.991-2.216s8.496-10.712,9.973-16.253
		c1.478-5.541,12.189-33.983,16.253-39.523c4.063-5.541,1.478-15.144-1.847-18.838c-3.324-3.694-4.063-5.171-10.342-4.802
		c-6.279,0.369-5.541,11.081-10.712,12.559s-8.496-5.91-13.667-4.588c-5.171,1.322-4.802,10.498-10.342,10.128
		c-5.541-0.369-7.757-9.234-10.712-9.973c-2.955-0.739-12.189,1.108-12.189,6.649c0,5.541,9.234,5.541,9.234,10.343
		s-3.324,4.432-7.018,4.802c-3.694,0.369-7.388,4.802-8.126,8.126c-0.739,3.324,0.369,5.171,2.216,7.018
		c1.847,1.847,8.126,4.063,7.387,8.194c-0.739,4.131-5.171,1.779-12.559,0.671c-7.388-1.108-9.973-1.478-12.928,4.063
		c-2.955,5.541,2.955,16.622,2.955,16.622l9.973,12.189C1463.093,393.184,1472.41,403.628,1478.32,408.429z M1495.532,464.698
		c0,0-12.077-2.955-16.509,0c-4.432,2.955-1.477,7.88-8.372,5.91c-6.895-1.97-3.94-11.82-8.865-15.76
		c-4.925-3.94-8.796,0.985-13.509-1.97c-4.713-2.955-1.758-10.835-7.668-14.775s-14.282,4.432-19.208,0
		c-4.925-4.433,1.478-14.775-2.955-19.208c-4.432-4.432-9.85,3.448-13.297,0s-3.94-13.79-10.343-14.775
		c-6.402-0.985-9.358,4.432-12.805,3.448c-3.448-0.985-6.895-9.358-6.895-15.268c0-5.91-0.493-8.865-5.418-9.358
		c-4.925-0.492-12.313,9.358-16.252,16.253c-3.94,6.895-10.835,12.805-18.223,15.268c-7.388,2.462-18.223-0.58-22.163-3.984
		c-3.94-3.404-17.73-9.806-26.103-7.344c-8.373,2.463-25.118,5.91-30.043,10.343c-4.925,4.433-15.76,12.313-17.73,20.193
		c-1.97,7.88-0.985,16.253,2.955,19.208c3.94,2.955,6.403,7.88,18.223,5.418c11.82-2.463,21.67-9.85,29.058-14.283
		c7.387-4.433,7.88-8.373,22.655-7.388c14.775,0.985,33.983,12.313,35.953,26.103c1.97,13.79,2.463,28.073-0.985,35.46
		s-11.82,26.103-14.282,31.028c-2.463,4.925-7.388,11.328-6.403,15.76c0.985,4.432,6.403,6.895,11.328,7.388
		c4.925,0.492,8.865-2.955,15.76-4.432c6.895-1.478,15.267,2.558,18.715,4.48c3.448,1.922,11.328,1.43,13.297-2.51
		c1.97-3.94,3.94-19.7,9.358-24.133c5.417-4.432,13.79-13.79,20.685-16.253s13.297-2.955,20.193-2.955s12.593,6.403,12.593,6.403
		s-16.041,6.895-17.026,16.253c-0.985,9.358,6.403,7.88,8.373,8.865s4.925,5.417,4.925,8.865s-3.448,5.91-2.463,9.358
		s14.282,5.417,19.208,3.94c0,0-5.91,15.76-18.223,16.745c-12.313,0.985-10.343,6.403-9.85,10.835
		c0.492,4.433,1.97,33.983-15.268,42.848c0,0,1.97-13.79-2.955-17.237c-4.925-3.448-8.865,6.895-14.283,5.417
		s-6.895-6.895-10.343-12.805c-3.448-5.91-3.448-8.372-7.88-8.372s-2.463,14.283-7.88,15.76
		c-5.417,1.477-8.373-18.223-14.775-18.715s-3.448,21.178-9.358,21.178s-7.88-18.715-14.282-19.208
		c-6.403-0.492-0.985,19.208-6.403,19.7c-5.417,0.492-12.313-20.193-22.162-21.178c-9.85-0.985-6.172,7.88-10.227,8.373
		c-4.056,0.492-8.98-7.88-13.906-7.88s-6.402,10.835-10.835,10.835c-4.432,0-26.595-28.565-26.595-34.968s3.448-17.73,4.432-24.133
		c0.985-6.402,1.478-17.237-1.97-22.655c-3.448-5.417-5.418-6.403-10.343-6.403c-4.925,0-14.775,13.298-14.283,22.655
		c0.493,9.357-3.483,31.52-0.018,39.893c3.465,8.372,5.435,23.64,1.003,32.013c0,0-11.82-42.355-27.088-42.355
		c-15.267,0-22.655,18.223-39.893,24.133c-17.238,5.91-32.505,11.328-34.475,18.223c-1.97,6.895-1.477,14.775,0,17.73
		c1.478,2.955,4.925,0.492,6.403,3.94s-4.925,18.715,0.492,23.148c5.418,4.432,12.805-2.463,16.745-3.94
		c3.94-1.478,18.715-2.955,24.133,2.462c5.417,5.418,0.492,10.343,3.447,13.79c2.955,3.448,7.88,0.985,7.88,8.372
		s-11.328,7.388-12.313,11.328c-0.985,3.94,0.493,10.343,2.955,12.805s1.477,10.343,16.745,10.835s103.918,2.955,129.035-3.448
		s81.755-25.61,92.098-30.535c10.343-4.925,30.043-14.775,39.4-15.268c9.358-0.492,32.505,3.448,42.848,4.925
		c10.343,1.477,35.46,6.895,46.295,7.388c10.835,0.492,25.118,0.985,31.028-2.463s0.985-11.82-3.94-17.238
		c-4.925-5.417-27.088-27.58-34.475-37.43c-7.388-9.85-25.61-38.415-29.058-56.145s-6.875-31.52-7.624-45.31
		C1494.783,504.098,1494.311,474.055,1495.532,464.698z M1331.519,734.588c0,0-67.965,12.559-104.533,12.559
		c-40.397,0-110.589-9.641-141.101-17.361c-30.658-7.757-60.085-17.976-73.875-19.946c-13.79-1.97-42.023-8.359-43.008,4.446
		c-0.985,12.805,21.208,27.764,32.665,34.708c12.189,7.388,40.873,17.898,67.596,22.532c24.403,4.232,97.146,5.308,141.471,5.171
		c36.458-0.112,98.832-3.448,125.218-10.343c26.387-6.895,78.308-21.67,84.218-23.64c5.91-1.97,47.407-15.131,46.172-28.428
		c-1.218-13.111-24.133-12.502-39.893-8.879S1349.112,730.095,1331.519,734.588z M1217.669,806.001c0,0-101.619,0-129.692-4.925
		c-28.073-4.925-84.331-19.358-99.978-27.826c-17.176-9.296-26.041,3.459-24.625,24.133c0.766,11.181,26.657,21.424,51.466,24.871
		c28.949,4.023,124.849,7.88,141.102,8.372s53.025,0.492,61.726,0c8.701-0.492,205.702-4.432,230.819-8.372
		s112.437-27.725,124.4-36.787c11.561-8.758-1.584-26.257-8.017-33.194c-6.989-7.538-11.481-12.335-30.196-12.335
		c-18.715,0-48.95,15.336-68.307,21.246c-19.358,5.91-51.37,16.253-68.115,22.163c-16.745,5.91-90.128,19.7-99.485,19.7
		C1289.41,803.046,1227.193,806.033,1217.669,806.001z M1668.882,736.312c5.91-7.141,1.46-16.991-8.865-18.961
		c-8.953-1.708-21.916-14.185-21.916-14.185s-12.963,12.477-21.916,14.185c-10.325,1.97-14.775,11.82-8.865,18.961
		c5.663,6.843,22.163,6.218,30.781,6.218S1663.219,743.155,1668.882,736.312z"/>
</g>
</svg>
